<?xml version="1.0" encoding="iso-8859-1"?>
<!-- Generator: Adobe Illustrator 24.0.1, SVG Export Plug-In . SVG Version: 6.00 Build 0)  -->
<svg version="1.1" id="accommodation_x5F_hotel-layer"
	 xmlns="http://www.w3.org/2000/svg" xmlns:xlink="http://www.w3.org/1999/xlink" x="0px" y="0px" viewBox="0 0 30 30"
	 style="enable-background:new 0 0 30 30;" xml:space="preserve">
<g id="accommodation_x5F_hotel_2_">
	<g>
		<g>
			<g>
				<path style="fill:#1B2433;" d="M2,29.5c-0.827,0-1.5-0.673-1.5-1.5V2c0-0.827,0.673-1.5,1.5-1.5h26c0.827,0,1.5,0.673,1.5,1.5
					v26c0,0.827-0.673,1.5-1.5,1.5H2z"/>
				<g>
					<path style="fill:#3B424C;" d="M28,1c0.551,0,1,0.449,1,1v26c0,0.551-0.449,1-1,1H2c-0.551,0-1-0.449-1-1V2
						c0-0.551,0.449-1,1-1H28 M28,0H2C0.895,0,0,0.895,0,2v26c0,1.105,0.895,2,2,2h26c1.105,0,2-0.895,2-2V2C30,0.895,29.105,0,28,0
						L28,0z"/>
				</g>
			</g>
		</g>
	</g>
	<path style="fill:none;" d="M3,3h24v24H3V3z"/>
	<path style="fill:#CDCDCD;" d="M23,17h-7v-4h5c1.105,0,2,0.895,2,2V17z M10,17v-2c0,0,0-2,2-2c2,0,2,2,2,2l0,2H10z M24,19.75
		c0-0.414-0.336-0.75-0.75-0.75H8v-6H6v12h2v-2h14v2h2V19.75z M25,11.422L15,7.843L5,11.422V8.559L15,5l10,3.559V11.422z"/>
</g>
</svg>
