<?xml version="1.0" encoding="iso-8859-1"?>
<!-- Generator: Adobe Illustrator 24.0.1, SVG Export Plug-In . SVG Version: 6.00 Build 0)  -->
<svg version="1.1" id="automotive_x5F_carrental-layer"
	 xmlns="http://www.w3.org/2000/svg" xmlns:xlink="http://www.w3.org/1999/xlink" x="0px" y="0px" viewBox="0 0 30 30"
	 style="enable-background:new 0 0 30 30;" xml:space="preserve">
<g id="automotive_x5F_carrental_2_">
	<g>
		<g>
			<g>
				<path style="fill:#1B2433;" d="M2,29.5c-0.827,0-1.5-0.673-1.5-1.5V2c0-0.827,0.673-1.5,1.5-1.5h26c0.827,0,1.5,0.673,1.5,1.5
					v26c0,0.827-0.673,1.5-1.5,1.5H2z"/>
				<g>
					<path style="fill:#3B424C;" d="M28,1c0.551,0,1,0.449,1,1v26c0,0.551-0.449,1-1,1H2c-0.551,0-1-0.449-1-1V2
						c0-0.551,0.449-1,1-1H28 M28,0H2C0.895,0,0,0.895,0,2v26c0,1.105,0.895,2,2,2h26c1.105,0,2-0.895,2-2V2C30,0.895,29.105,0,28,0
						L28,0z"/>
				</g>
			</g>
		</g>
	</g>
	<rect x="3" y="3" style="fill:none;" width="24" height="24"/>
	<path style="fill:#CDCDCD;" d="M8.706,10.992L13,11l0.75-1.5h2.75l1-1l1,1h2.466l1.5-1.509l-1.5-1.491H13.75L13,5H8.711
		C7.766,5,7,5.766,7,6.711v2.571C7,10.225,7.763,10.99,8.706,10.992z M9,7h3v2H9V7z M22.778,16l-1.023-2.301
		C21.296,12.667,20.313,12,19.251,12h-8.469c-1.062,0-2.045,0.667-2.504,1.699L7.256,16H5.5c-0.667,0.667-0.667,1.333,0,2H6v6
		c0,0.552,0.448,1,1,1h3c0.552,0,1-0.448,1-1v-1h8v1c0,0.552,0.465,1,1.017,1h3C23.569,25,24,24.552,24,24v-6h0.5
		c0.667-0.667,0.667-1.333,0-2H22.778z M10.106,14.512c0.141-0.315,0.4-0.512,0.677-0.512h8.469c0.277,0,0.536,0.196,0.677,0.512
		L21.034,17H9L10.106,14.512z M11,21H8.5c-0.667-0.667-0.667-1.333,0-2H11V21z M21.5,21H19v-2h2.5
		C22.167,19.667,22.167,20.333,21.5,21z"/>
</g>
</svg>
