<?xml version="1.0" encoding="iso-8859-1"?>
<!-- Generator: Adobe Illustrator 24.0.1, SVG Export Plug-In . SVG Version: 6.00 Build 0)  -->
<svg version="1.1" id="automotive_x5F_repair_x5F_car-layer"
	 xmlns="http://www.w3.org/2000/svg" xmlns:xlink="http://www.w3.org/1999/xlink" x="0px" y="0px" viewBox="0 0 30 30"
	 style="enable-background:new 0 0 30 30;" xml:space="preserve">
<g id="automotive_x5F_repair_x5F_car_2_">
	<g>
		<g>
			<g>
				<path style="fill:#1B2433;" d="M2,29.5c-0.827,0-1.5-0.673-1.5-1.5V2c0-0.827,0.673-1.5,1.5-1.5h26c0.827,0,1.5,0.673,1.5,1.5
					v26c0,0.827-0.673,1.5-1.5,1.5H2z"/>
				<g>
					<path style="fill:#3B424C;" d="M28,1c0.551,0,1,0.449,1,1v26c0,0.551-0.449,1-1,1H2c-0.551,0-1-0.449-1-1V2
						c0-0.551,0.449-1,1-1H28 M28,0H2C0.895,0,0,0.895,0,2v26c0,1.105,0.895,2,2,2h26c1.105,0,2-0.895,2-2V2C30,0.895,29.105,0,28,0
						L28,0z"/>
				</g>
			</g>
		</g>
	</g>
	<rect x="3" y="3" style="fill:none;" width="24" height="24"/>
	<path style="fill:#CDCDCD;" d="M21.466,6.719V7H18v2h3.466v0.289c0,0.945-0.766,1.711-1.711,1.711h-3.289l-0.75-1.5H8.5l0,0
		C7.672,8.677,7.667,7.338,8.491,6.509L8.5,6.5h7.216l0.75-1.5l3.293,0.008C20.702,5.01,21.466,5.775,21.466,6.719z M24.5,16
		c0.667,0.667,0.667,1.333,0,2H24v6c0,0.552-0.448,1-1,1h-3c-0.552,0-1-0.448-1-1v-1h-8v1c0,0.552-0.448,1-1,1H7
		c-0.552,0-1-0.448-1-1v-6H5.5c-0.667-0.667-0.667-1.333,0-2h1.739l1.023-2.301C8.721,12.667,9.704,12,10.766,12h8.469
		c1.062,0,2.045,0.667,2.504,1.699L22.761,16H24.5z M8.983,17h12.034l-1.106-2.488C19.771,14.196,19.511,14,19.234,14h-8.469
		c-0.277,0-0.536,0.196-0.677,0.512L8.983,17z M11,19H8.5c-0.667,0.667-0.667,1.333,0,2H11V19z M21.5,19H19v2h2.5
		C22.167,20.333,22.167,19.667,21.5,19z"/>
</g>
</svg>
