<?xml version="1.0" encoding="iso-8859-1"?>
<!-- Generator: Adobe Illustrator 24.0.1, SVG Export Plug-In . SVG Version: 6.00 Build 0)  -->
<svg version="1.1" id="connector_x5F_elevator-layer"
	 xmlns="http://www.w3.org/2000/svg" xmlns:xlink="http://www.w3.org/1999/xlink" x="0px" y="0px" viewBox="0 0 30 30"
	 style="enable-background:new 0 0 30 30;" xml:space="preserve">
<g id="connector_x5F_elevator_3_">
	<rect x="3" y="3" style="fill:none;" width="24" height="24"/>
	<g>
		<path style="fill:#1B2433;" d="M2,29.5c-0.827,0-1.5-0.673-1.5-1.5V2c0-0.827,0.673-1.5,1.5-1.5h26c0.827,0,1.5,0.673,1.5,1.5v26
			c0,0.827-0.673,1.5-1.5,1.5H2z"/>
		<g>
			<path style="fill:#3B424C;" d="M28,1c0.551,0,1,0.449,1,1v26c0,0.551-0.449,1-1,1H2c-0.551,0-1-0.449-1-1V2c0-0.551,0.449-1,1-1
				H28 M28,0H2C0.895,0,0,0.895,0,2v26c0,1.105,0.895,2,2,2h26c1.105,0,2-0.895,2-2V2C30,0.895,29.105,0,28,0L28,0z"/>
		</g>
	</g>
	<path id="elevator_3_" style="fill:#CDCDCD;" d="M14.999,5H7C5.895,5,5,5.896,5,7v16c0,1.104,0.895,2,2,2h7.991
		c1.104,0,2-0.895,2-1.999l0.008-16C17,5.896,16.104,5,14.999,5z M10,7.5C10,7.224,10.224,7,10.5,7h1C11.776,7,12,7.224,12,7.5v2
		c0,0.276-0.224,0.5-0.5,0.5h-1C10.224,10,10,9.776,10,9.5V7.5z M12.5,17.5L12,22h-2l-0.5-4.5L8,17c0,0,0.266-3.665,0.41-5.104
		C8.461,11.385,8.891,11,9.405,11c0.587,0,0.863,0.5,1.595,0.5c0.774,0,1.009-0.5,1.595-0.5c0.514,0,0.944,0.389,0.995,0.9L14,17
		L12.5,17.5z M25,13h-6l3-5L25,13z M19,17l6,0.045L22,22L19,17z"/>
</g>
</svg>
