<?xml version="1.0" encoding="iso-8859-1"?>
<!-- Generator: Adobe Illustrator 24.0.1, SVG Export Plug-In . SVG Version: 6.00 Build 0)  -->
<svg version="1.1" id="eatdrink_x5F_cocktail-layer"
	 xmlns="http://www.w3.org/2000/svg" xmlns:xlink="http://www.w3.org/1999/xlink" x="0px" y="0px" viewBox="0 0 30 30"
	 style="enable-background:new 0 0 30 30;" xml:space="preserve">
<g id="eatdrink_x5F_cocktail_2_">
	<g>
		<g>
			<path style="fill:#1B2433;" d="M2,29.5c-0.827,0-1.5-0.673-1.5-1.5V2c0-0.827,0.673-1.5,1.5-1.5h26c0.827,0,1.5,0.673,1.5,1.5v26
				c0,0.827-0.673,1.5-1.5,1.5H2z"/>
			<g>
				<path style="fill:#3B424C;" d="M28,1c0.551,0,1,0.449,1,1v26c0,0.551-0.449,1-1,1H2c-0.551,0-1-0.449-1-1V2c0-0.551,0.449-1,1-1
					H28 M28,0H2C0.895,0,0,0.895,0,2v26c0,1.105,0.895,2,2,2h26c1.105,0,2-0.895,2-2V2C30,0.895,29.105,0,28,0L28,0z"/>
			</g>
		</g>
	</g>
	<rect x="3" y="2.998" style="fill:none;" width="24" height="24.002"/>
	<path style="fill:#CDCDCD;" d="M18.014,23L16,23.001c-0.009-0.001,0.001-3.47,0-4.705c-0.001-0.508,0.193-0.996,0.541-1.366
		c0,0,7.437-7.932,7.424-7.932H12.448L8.486,5.042L7.273,6.255L9.98,8.998L5.598,9.024l7.827,7.9
		c0.369,0.373,0.576,0.877,0.576,1.402c-0.001,1.24,0.009,4.673,0,4.674h-2c-1.102-0.001-2,0.898-2,2h10
		C20,23.904,19.111,23,18.014,23z M15.949,15c-1.296,0-2.3-1.264-1.876-2.641C14.331,11.518,15.174,11,16.044,11
		c0.691,0,1.366,0.355,1.679,0.98C18.481,13.494,17.414,15,16,15H15.949z"/>
</g>
</svg>
