<?xml version="1.0" encoding="iso-8859-1"?>
<!-- Generator: Adobe Illustrator 24.0.1, SVG Export Plug-In . SVG Version: 6.00 Build 0)  -->
<svg version="1.1" id="eatdrink_x5F_coffee-layer" xmlns="http://www.w3.org/2000/svg" xmlns:xlink="http://www.w3.org/1999/xlink"
	 x="0px" y="0px" viewBox="0 0 30 30" style="enable-background:new 0 0 30 30;" xml:space="preserve">
<g id="eatdrink_x5F_coffee_2_">
	<g>
		<g>
			<path style="fill:#1B2433;" d="M2,29.5c-0.827,0-1.5-0.673-1.5-1.5V2c0-0.827,0.673-1.5,1.5-1.5h26c0.827,0,1.5,0.673,1.5,1.5v26
				c0,0.827-0.673,1.5-1.5,1.5H2z"/>
			<g>
				<path style="fill:#3B424C;" d="M28,1c0.551,0,1,0.449,1,1v26c0,0.551-0.449,1-1,1H2c-0.551,0-1-0.449-1-1V2c0-0.551,0.449-1,1-1
					H28 M28,0H2C0.895,0,0,0.895,0,2v26c0,1.105,0.895,2,2,2h26c1.105,0,2-0.895,2-2V2C30,0.895,29.105,0,28,0L28,0z"/>
			</g>
		</g>
	</g>
	<rect x="3" y="3" style="fill:none;" width="24" height="24"/>
	<path style="fill:#CDCDCD;" d="M9.368,21h8.764c1.053,0,1.926-0.813,2.001-1.863c0,0,0.298-4.137,0.301-4.137l0.41,0
		c1.926,0,3.698-1.289,4.074-3.178C25.429,9.253,23.478,7,21,7H6.507C6.503,7,6.5,7.003,6.5,7.007l0.866,12.13
		C7.442,20.187,8.316,21,9.368,21z M20.981,9c1.315,0,2.333,1.268,1.898,2.648C22.616,12.484,21.769,13,20.892,13h-0.321l0.286-4
		C20.899,9,20.938,9,20.981,9z M5,23h19l-0.447,0.894C23.214,24.572,22.521,25,21.764,25H7.236c-0.758,0-1.45-0.428-1.789-1.106
		L5,23z"/>
</g>
</svg>
