<?xml version="1.0" encoding="iso-8859-1"?>
<!-- Generator: Adobe Illustrator 24.0.1, SVG Export Plug-In . SVG Version: 6.00 Build 0)  -->
<svg version="1.1" id="facilities_x5F_parknride-layer"
	 xmlns="http://www.w3.org/2000/svg" xmlns:xlink="http://www.w3.org/1999/xlink" x="0px" y="0px" viewBox="0 0 30 30"
	 style="enable-background:new 0 0 30 30;" xml:space="preserve">
<g id="facilities_x5F_parknride_2_">
	<g>
		<path style="fill:#1B2433;" d="M2,29.5c-0.827,0-1.5-0.673-1.5-1.5V2c0-0.827,0.673-1.5,1.5-1.5h26c0.827,0,1.5,0.673,1.5,1.5v26
			c0,0.827-0.673,1.5-1.5,1.5H2z"/>
		<g>
			<path style="fill:#3B424C;" d="M28,1c0.551,0,1,0.449,1,1v26c0,0.551-0.449,1-1,1H2c-0.551,0-1-0.449-1-1V2c0-0.551,0.449-1,1-1
				H28 M28,0H2C0.895,0,0,0.895,0,2v26c0,1.105,0.895,2,2,2h26c1.105,0,2-0.895,2-2V2C30,0.895,29.105,0,28,0L28,0z"/>
		</g>
	</g>
	<rect x="3.004" y="3" style="fill:none;" width="24" height="24"/>
	<path style="fill:#CDCDCD;" d="M24.972,8H5V7c0,0,0-2,2-2h15.972c2,0,2,2,2.028,2L24.972,8z M5,23c0.028,0,0.028,2,2.028,2H23
		c2,0,2-2,2-2v-1H5V23z M7.366,20H5V10h3.232c2.583,0,4.17,1.067,4.17,3.261c0,2.323-1.645,3.405-3.954,3.405H7.366V20z
		 M7.366,14.964h0.881c1.068,0,1.717-0.447,1.717-1.702c0-1.068-0.592-1.573-1.761-1.573H7.366V14.964z M13,14.494
		C13,15.339,13.639,16,14.494,16c0.856,0,1.495-0.639,1.495-1.494c0-0.856-0.639-1.506-1.495-1.506C13.639,13,13,13.639,13,14.494z
		 M22.469,15.743L25.009,20h-2.67l-2.049-3.824h-0.924V20H17V10h3.275c2.713,0,4.113,0.966,4.113,3.044
		C24.388,14.358,23.768,15.151,22.469,15.743z M21.95,13.044c0-0.966-0.563-1.385-1.732-1.385h-0.852v2.887h0.996
		C21.401,14.546,21.95,14.098,21.95,13.044z"/>
</g>
</svg>
