<?xml version="1.0" encoding="iso-8859-1"?>
<!-- Generator: Adobe Illustrator 24.0.1, SVG Export Plug-In . SVG Version: 6.00 Build 0)  -->
<svg version="1.1" id="facilities_x5F_cemetry-layer"
	 xmlns="http://www.w3.org/2000/svg" xmlns:xlink="http://www.w3.org/1999/xlink" x="0px" y="0px" viewBox="0 0 30 30"
	 style="enable-background:new 0 0 30 30;" xml:space="preserve">
<g id="facilities_x5F_cemetry_2_">
	<g id="XMLID_23_">
		<g>
			<g>
				<path style="fill:#1B2433;" d="M2,29.5c-0.827,0-1.5-0.673-1.5-1.5V2c0-0.827,0.673-1.5,1.5-1.5h26c0.827,0,1.5,0.673,1.5,1.5
					v26c0,0.827-0.673,1.5-1.5,1.5H2z"/>
				<g>
					<path style="fill:#3B424C;" d="M28,1c0.551,0,1,0.449,1,1v26c0,0.551-0.449,1-1,1H2c-0.551,0-1-0.449-1-1V2
						c0-0.551,0.449-1,1-1H28 M28,0H2C0.895,0,0,0.895,0,2v26c0,1.105,0.895,2,2,2h26c1.105,0,2-0.895,2-2V2C30,0.895,29.105,0,28,0
						L28,0z"/>
				</g>
			</g>
		</g>
	</g>
	<path style="fill:none;" d="M27,27H3V3h24V27z"/>
	<path style="fill:#CDCDCD;" d="M22.03,6.97C22.01,6.43,21.57,6,21.03,6H18.5V5.5c-2.333-0.667-4.667-0.667-7,0V6H8.97
		c-0.54,0-0.98,0.43-1,0.97L7.5,21h15L22.03,6.97z M19,15h-8v-2h8V15z M19,11h-8V9h8V11z M25,23v2H5v-2H25z"/>
</g>
</svg>
