<?xml version="1.0" encoding="iso-8859-1"?>
<!-- Generator: Adobe Illustrator 24.0.1, SVG Export Plug-In . SVG Version: 6.00 Build 0)  -->
<svg version="1.1" id="facilities_x5F_bank-layer" xmlns="http://www.w3.org/2000/svg" xmlns:xlink="http://www.w3.org/1999/xlink"
	 x="0px" y="0px" viewBox="0 0 30 30" style="enable-background:new 0 0 30 30;" xml:space="preserve">
<g id="facilities_x5F_bank_1_">
	<g>
		<g>
			<g>
				<path style="fill:#1B2433;" d="M2,29.5c-0.827,0-1.5-0.673-1.5-1.5V2c0-0.827,0.673-1.5,1.5-1.5h26c0.827,0,1.5,0.673,1.5,1.5
					v26c0,0.827-0.673,1.5-1.5,1.5H2z"/>
				<g>
					<path style="fill:#3B424C;" d="M28,1c0.551,0,1,0.449,1,1v26c0,0.551-0.449,1-1,1H2c-0.551,0-1-0.449-1-1V2
						c0-0.551,0.449-1,1-1H28 M28,0H2C0.895,0,0,0.895,0,2v26c0,1.105,0.895,2,2,2h26c1.105,0,2-0.895,2-2V2C30,0.895,29.105,0,28,0
						L28,0z"/>
				</g>
			</g>
		</g>
	</g>
	<rect x="3" y="2.988" style="opacity:0.11;fill:none;" width="24" height="24"/>
	<path style="fill:#CDCDCD;" d="M17,21.856V25h-3v-2.888c-1.802-0.177-3.197-0.887-4.199-1.872l1.384-1.547
		c1.038,0.875,2.157,1.404,3.622,1.404c1.506,0,2.584-0.732,2.584-2.096c0-1.18-0.59-1.71-2.788-2.381
		c-2.95-0.916-4.233-2.096-4.233-4.233c0-1.995,1.482-3.384,3.629-3.757V5h0.5h2H17v2.74c1.092,0.263,1.987,0.752,2.792,1.491
		l-1.323,1.526c-1.017-0.834-1.994-1.2-3.154-1.2c-1.261,0-2.177,0.57-2.177,1.669c0,1.017,0.549,1.465,2.889,2.197
		c2.462,0.773,4.172,1.791,4.172,4.436C20.199,19.78,19.03,21.253,17,21.856z"/>
</g>
</svg>
