<?xml version="1.0" encoding="iso-8859-1"?>
<!-- Generator: Adobe Illustrator 24.0.1, SVG Export Plug-In . SVG Version: 6.00 Build 0)  -->
<svg version="1.1" id="facilities_x5F_main-layer" xmlns="http://www.w3.org/2000/svg" xmlns:xlink="http://www.w3.org/1999/xlink"
	 x="0px" y="0px" viewBox="0 0 30 30" style="enable-background:new 0 0 30 30;" xml:space="preserve">
<g id="facilities_x5F_main_2_">
	<g>
		<path style="fill:#1B2433;" d="M2,29.5c-0.827,0-1.5-0.673-1.5-1.5V2c0-0.827,0.673-1.5,1.5-1.5h26c0.827,0,1.5,0.673,1.5,1.5v26
			c0,0.827-0.673,1.5-1.5,1.5H2z"/>
		<g>
			<path style="fill:#3B424C;" d="M28,1c0.551,0,1,0.449,1,1v26c0,0.551-0.449,1-1,1H2c-0.551,0-1-0.449-1-1V2c0-0.551,0.449-1,1-1
				H28 M28,0H2C0.895,0,0,0.895,0,2v26c0,1.105,0.895,2,2,2h26c1.105,0,2-0.895,2-2V2C30,0.895,29.105,0,28,0L28,0z"/>
		</g>
	</g>
	<rect x="3" y="3" style="fill:none;" width="24" height="24"/>
	<path style="fill:#CDCDCD;" d="M14.991,5L7,9.417V25h6.745v-5h2.496v5h6.75V9.417L14.991,5z M12,13H9.5v-3H12V13z M16.241,13
		h-2.496v-3h2.496V13z M20.5,13h-2.517v-3H20.5V13z M12,18H9.5v-3H12V18z M16.241,18h-2.496v-3h2.496V18z M20.5,18h-2.509l-0.009-3
		H20.5V18z M12,23H9.5v-3H12V23z M20.5,23h-2.509v-3H20.5V23z"/>
</g>
</svg>
