<?xml version="1.0" encoding="iso-8859-1"?>
<!-- Generator: Adobe Illustrator 24.0.1, SVG Export Plug-In . SVG Version: 6.00 Build 0)  -->
<svg version="1.1" id="facilities_x5F_harbor-layer"
	 xmlns="http://www.w3.org/2000/svg" xmlns:xlink="http://www.w3.org/1999/xlink" x="0px" y="0px" viewBox="0 0 30 30"
	 style="enable-background:new 0 0 30 30;" xml:space="preserve">
<g id="facilities_x5F_harbor_1_">
	<g>
		<g>
			<g>
				<path style="fill:#1B2433;" d="M2,29.5c-0.827,0-1.5-0.673-1.5-1.5V2c0-0.827,0.673-1.5,1.5-1.5h26c0.827,0,1.5,0.673,1.5,1.5
					v26c0,0.827-0.673,1.5-1.5,1.5H2z"/>
				<g>
					<path style="fill:#3B424C;" d="M28,1c0.551,0,1,0.449,1,1v26c0,0.551-0.449,1-1,1H2c-0.551,0-1-0.449-1-1V2
						c0-0.551,0.449-1,1-1H28 M28,0H2C0.895,0,0,0.895,0,2v26c0,1.105,0.895,2,2,2h26c1.105,0,2-0.895,2-2V2C30,0.895,29.105,0,28,0
						L28,0z"/>
				</g>
			</g>
		</g>
	</g>
	<rect x="3" y="3" style="fill:none;" width="24" height="24"/>
	<path style="fill:#CDCDCD;" d="M25,16.5l-2.5-4l-2.5,4h1.5c0,3.209-2.077,4.676-5.089,5.004L16.16,15H19v-2h-2.912l-0.06-1.682
		c1.287-0.433,2.222-1.636,2.222-3.068C18.25,6.457,16.792,5,15,5s-3.25,1.457-3.25,3.25c0,1.432,0.936,2.635,2.222,3.068L13.912,13
		H11v2h2.84l-0.251,6.504C10.577,21.176,8.5,19.709,8.5,16.5H10l-2.5-4l-2.5,4h1.5V17c0,3.419,2.092,4.869,5.086,6.16
		C12.631,23.611,15,25,15,25s2.366-1.389,3.41-1.838C21.407,21.871,23.5,20.42,23.5,17v-0.5H25z M13.25,8.25
		c0-0.965,0.785-1.75,1.75-1.75c0.965,0,1.75,0.785,1.75,1.75S15.965,10,15,10C14.035,10,13.25,9.215,13.25,8.25z"/>
</g>
</svg>
