<?xml version="1.0" encoding="iso-8859-1"?>
<!-- Generator: Adobe Illustrator 24.0.1, SVG Export Plug-In . SVG Version: 6.00 Build 0)  -->
<svg version="1.1" id="goingout_x5F_casino-layer" xmlns="http://www.w3.org/2000/svg" xmlns:xlink="http://www.w3.org/1999/xlink"
	 x="0px" y="0px" viewBox="0 0 30 30" style="enable-background:new 0 0 30 30;" xml:space="preserve">
<g id="goingout_x5F_casino_2_">
	<g>
		<g>
			<g>
				<path style="fill:#1B2433;" d="M2,29.5c-0.827,0-1.5-0.673-1.5-1.5V2c0-0.827,0.673-1.5,1.5-1.5h26c0.827,0,1.5,0.673,1.5,1.5
					v26c0,0.827-0.673,1.5-1.5,1.5H2z"/>
				<g>
					<path style="fill:#3B424C;" d="M28,1c0.551,0,1,0.449,1,1v26c0,0.551-0.449,1-1,1H2c-0.551,0-1-0.449-1-1V2
						c0-0.551,0.449-1,1-1H28 M28,0H2C0.895,0,0,0.895,0,2v26c0,1.105,0.895,2,2,2h26c1.105,0,2-0.895,2-2V2C30,0.895,29.105,0,28,0
						L28,0z"/>
				</g>
			</g>
		</g>
	</g>
	<rect x="3" y="3" style="fill:none;" width="24" height="24"/>
	<path style="fill:#CDCDCD;" d="M22.5,6h-15C6.672,6,6,6.672,6,7.5v15C6,23.328,6.672,24,7.5,24h15c0.828,0,1.5-0.672,1.5-1.5v-15
		C24,6.672,23.328,6,22.5,6z M10,22.5c-1.381,0-2.5-1.119-2.5-2.5s1.119-2.5,2.5-2.5s2.5,1.119,2.5,2.5S11.381,22.5,10,22.5z
		 M15,17.5c-1.381,0-2.5-1.119-2.5-2.5s1.119-2.5,2.5-2.5s2.5,1.119,2.5,2.5S16.381,17.5,15,17.5z M20,12.5
		c-1.381,0-2.5-1.119-2.5-2.5s1.119-2.5,2.5-2.5c1.381,0,2.5,1.119,2.5,2.5S21.381,12.5,20,12.5z"/>
</g>
</svg>
