<?xml version="1.0" encoding="iso-8859-1"?>
<!-- Generator: Adobe Illustrator 24.0.1, SVG Export Plug-In . SVG Version: 6.00 Build 0)  -->
<svg version="1.1" id="goingout_x5F_pool-layer" xmlns="http://www.w3.org/2000/svg" xmlns:xlink="http://www.w3.org/1999/xlink"
	 x="0px" y="0px" viewBox="0 0 30 30" style="enable-background:new 0 0 30 30;" xml:space="preserve">
<g id="goingout_x5F_pool_4_">
	<g>
		<g>
			<g>
				<path style="fill:#1B2433;" d="M2,29.5c-0.827,0-1.5-0.673-1.5-1.5V2c0-0.827,0.673-1.5,1.5-1.5h26c0.827,0,1.5,0.673,1.5,1.5
					v26c0,0.827-0.673,1.5-1.5,1.5H2z"/>
				<g>
					<path style="fill:#3B424C;" d="M28,1c0.551,0,1,0.449,1,1v26c0,0.551-0.449,1-1,1H2c-0.551,0-1-0.449-1-1V2
						c0-0.551,0.449-1,1-1H28 M28,0H2C0.895,0,0,0.895,0,2v26c0,1.105,0.895,2,2,2h26c1.105,0,2-0.895,2-2V2C30,0.895,29.105,0,28,0
						L28,0z"/>
				</g>
			</g>
		</g>
	</g>
	<rect x="3" y="3" style="fill:none;" width="24" height="24"/>
	<path style="fill:#CDCDCD;" d="M15.001,5C9.487,5,5,9.485,5,15c0,5.513,4.487,10,10.001,10C20.514,25,25,20.512,25,15
		C25,9.485,20.514,5,15.001,5z M15.001,20.888c-3.253,0-5.89-2.636-5.89-5.889c0-3.252,2.638-5.889,5.89-5.889
		c3.252,0,5.89,2.636,5.89,5.889C20.891,18.252,18.252,20.888,15.001,20.888z M16.199,14.714c0.836-0.429,1.221-0.99,1.221-1.672
		c0-1.232-1.111-1.893-2.42-1.893c-1.32,0-2.42,0.737-2.42,1.947c0,0.727,0.319,1.32,1.111,1.749
		c-0.88,0.374-1.408,0.969-1.408,1.87c0,1.199,1.023,2.135,2.684,2.135c1.684,0,2.75-0.946,2.75-2.156
		C17.717,15.814,17.211,15.165,16.199,14.714z M15,12.14c0.693,0,1.056,0.385,1.056,0.968c0,0.528-0.209,0.892-0.792,1.255
		l-0.209-0.077c-0.715-0.265-1.111-0.539-1.111-1.166C13.944,12.47,14.362,12.14,15,12.14z M15,17.806
		c-0.792,0-1.298-0.43-1.298-1.134c0-0.671,0.297-1.144,0.891-1.463l0.341,0.121c0.99,0.363,1.353,0.671,1.353,1.364
		C16.287,17.332,15.825,17.806,15,17.806z"/>
</g>
</svg>
