<?xml version="1.0" encoding="iso-8859-1"?>
<!-- Generator: Adobe Illustrator 24.0.1, SVG Export Plug-In . SVG Version: 6.00 Build 0)  -->
<svg version="1.1" id="goingout_x5F_cinema-layer" xmlns="http://www.w3.org/2000/svg" xmlns:xlink="http://www.w3.org/1999/xlink"
	 x="0px" y="0px" viewBox="0 0 30 30" style="enable-background:new 0 0 30 30;" xml:space="preserve">
<g id="goingout_x5F_cinema_2_">
	<g>
		<g>
			<g>
				<path style="fill:#1B2433;" d="M2,29.5c-0.827,0-1.5-0.673-1.5-1.5V2c0-0.827,0.673-1.5,1.5-1.5h26c0.827,0,1.5,0.673,1.5,1.5
					v26c0,0.827-0.673,1.5-1.5,1.5H2z"/>
				<g>
					<path style="fill:#3B424C;" d="M28,1c0.551,0,1,0.449,1,1v26c0,0.551-0.449,1-1,1H2c-0.551,0-1-0.449-1-1V2
						c0-0.551,0.449-1,1-1H28 M28,0H2C0.895,0,0,0.895,0,2v26c0,1.105,0.895,2,2,2h26c1.105,0,2-0.895,2-2V2C30,0.895,29.105,0,28,0
						L28,0z"/>
				</g>
			</g>
		</g>
	</g>
	<rect x="3" y="3" style="fill:none;" width="24" height="24"/>
	<path style="fill:#CDCDCD;" d="M17.25,14c2.485,0,4.5-2.015,4.5-4.5S19.735,5,17.25,5c-2.059,0-3.791,1.385-4.326,3.272
		C12.262,7.211,11.093,6.5,9.75,6.5C7.679,6.5,6,8.179,6,10.25S7.679,14,9.75,14C11.359,14,15.508,14,17.25,14z M17.25,8
		c0.828,0,1.5,0.672,1.5,1.5c0,0.828-0.672,1.5-1.5,1.5c-0.828,0-1.5-0.672-1.5-1.5C15.75,8.672,16.422,8,17.25,8z M8.25,10.25
		c0-0.828,0.672-1.5,1.5-1.5c0.828,0,1.5,0.672,1.5,1.5c0,0.828-0.672,1.5-1.5,1.5C8.922,11.75,8.25,11.078,8.25,10.25z M24,17v7h-2
		l-2.997-2v1.997C19.003,24.551,18.554,25,18,25H9.003C8.449,25,8,24.551,8,23.997v-6.994C8,16.449,8.449,16,9.003,16H18
		c0.554,0,1.003,0.449,1.003,1.003V19L22,17H24z"/>
</g>
</svg>
