<?xml version="1.0" encoding="iso-8859-1"?>
<!-- Generator: Adobe Illustrator 24.0.1, SVG Export Plug-In . SVG Version: 6.00 Build 0)  -->
<svg version="1.1" id="goingout_x5F_nightclub-layer"
	 xmlns="http://www.w3.org/2000/svg" xmlns:xlink="http://www.w3.org/1999/xlink" x="0px" y="0px" viewBox="0 0 30 30"
	 style="enable-background:new 0 0 30 30;" xml:space="preserve">
<g id="goingout_x5F_nightclub_1_">
	<g>
		<g>
			<g>
				<path style="fill:#1B2433;" d="M2,29.5c-0.827,0-1.5-0.673-1.5-1.5V2c0-0.827,0.673-1.5,1.5-1.5h26c0.827,0,1.5,0.673,1.5,1.5
					v26c0,0.827-0.673,1.5-1.5,1.5H2z"/>
				<g>
					<path style="fill:#3B424C;" d="M28,1c0.551,0,1,0.449,1,1v26c0,0.551-0.449,1-1,1H2c-0.551,0-1-0.449-1-1V2
						c0-0.551,0.449-1,1-1H28 M28,0H2C0.895,0,0,0.895,0,2v26c0,1.105,0.895,2,2,2h26c1.105,0,2-0.895,2-2V2C30,0.895,29.105,0,28,0
						L28,0z"/>
				</g>
			</g>
		</g>
	</g>
	<rect x="3" y="3" style="fill:none;" width="24" height="24"/>
	<path style="fill:#CDCDCD;" d="M14,14c0,0.827-0.673,1.5-1.5,1.5C11.673,15.5,11,14.827,11,14c0-0.827,0.673-1.5,1.499-1.5
		C13.327,12.5,14,13.173,14,14z M11.03,21.361c-2.952-0.559-5.331-2.94-5.891-5.892c-1.002-5.285,3.54-9.831,8.826-8.831
		c2.953,0.559,5.335,2.939,5.895,5.892C20.863,17.816,16.315,22.362,11.03,21.361z M11.546,10.623
		c-1.168,0.307-2.115,1.249-2.428,2.416c-0.715,2.665,1.663,5.046,4.327,4.333c1.166-0.312,2.109-1.256,2.418-2.424
		C16.566,12.294,14.203,9.926,11.546,10.623z M21,5v3.999l1,0v7.556c0,0.463-0.109,0.928-0.316,1.342l-1.078,2.155l-0.448-0.224
		l-1.635,3.27l0.447,0.224l1.789,0.895l0.447,0.224l1.635-3.27l-0.447-0.224l1.078-2.156C23.817,18.1,24,17.327,24,16.555V9l1,0V5
		H21z"/>
</g>
</svg>
