<?xml version="1.0" encoding="iso-8859-1"?>
<!-- Generator: Adobe Illustrator 24.0.1, SVG Export Plug-In . SVG Version: 6.00 Build 0)  -->
<svg version="1.1" id="leisure_x5F_main-layer" xmlns="http://www.w3.org/2000/svg" xmlns:xlink="http://www.w3.org/1999/xlink"
	 x="0px" y="0px" viewBox="0 0 30 30" style="enable-background:new 0 0 30 30;" xml:space="preserve">
<g id="leisure_x5F_main_2_">
	<g>
		<g>
			<path style="fill:#1B2433;" d="M2,29.5c-0.827,0-1.5-0.673-1.5-1.5V2c0-0.827,0.673-1.5,1.5-1.5h26c0.827,0,1.5,0.673,1.5,1.5v26
				c0,0.827-0.673,1.5-1.5,1.5H2z"/>
			<g>
				<path style="fill:#3B424C;" d="M28,1c0.551,0,1,0.449,1,1v26c0,0.551-0.449,1-1,1H2c-0.551,0-1-0.449-1-1V2c0-0.551,0.449-1,1-1
					H28 M28,0H2C0.895,0,0,0.895,0,2v26c0,1.105,0.895,2,2,2h26c1.105,0,2-0.895,2-2V2C30,0.895,29.105,0,28,0L28,0z"/>
			</g>
		</g>
	</g>
	<rect x="3" y="3" style="opacity:0;fill:none;" width="24" height="24"/>
	<path style="fill:#CDCDCD;" d="M25,12.385C25,13.277,24.311,14,23.462,14h-2.44c-0.408,0-0.799-0.17-1.088-0.473l-1.088-1.143
		l-1.088,1.142C17.47,13.83,17.078,14,16.67,14H13.33c-0.408,0-0.799-0.17-1.088-0.473l-1.088-1.143l-1.088,1.142
		C9.777,13.83,9.386,14,8.978,14h-2.44C5.689,14,5,13.277,5,12.385C7.087,9.308,9.286,7,14.048,7h0.421l0.055-1.5h0.952L15.531,7
		h0.421C20.714,7,22.913,9.308,25,12.385z M14.227,16L14,24h2l-0.227-8H14.227z"/>
</g>
</svg>
