<?xml version="1.0" encoding="iso-8859-1"?>
<!-- Generator: Adobe Illustrator 24.0.1, SVG Export Plug-In . SVG Version: 6.00 Build 0)  -->
<svg version="1.1" id="nature_x5F_overlook-layer" xmlns="http://www.w3.org/2000/svg" xmlns:xlink="http://www.w3.org/1999/xlink"
	 x="0px" y="0px" viewBox="0 0 30 30" style="enable-background:new 0 0 30 30;" xml:space="preserve">
<g id="nature_x5F_overlook_2_">
	<g>
		<g>
			<path style="fill:#1B2433;" d="M2,29.5c-0.827,0-1.5-0.673-1.5-1.5V2c0-0.827,0.673-1.5,1.5-1.5h26c0.827,0,1.5,0.673,1.5,1.5v26
				c0,0.827-0.673,1.5-1.5,1.5H2z"/>
			<g>
				<path style="fill:#3B424C;" d="M28,1c0.551,0,1,0.449,1,1v26c0,0.551-0.449,1-1,1H2c-0.551,0-1-0.449-1-1V2c0-0.551,0.449-1,1-1
					H28 M28,0H2C0.895,0,0,0.895,0,2v26c0,1.105,0.895,2,2,2h26c1.105,0,2-0.895,2-2V2C30,0.895,29.105,0,28,0L28,0z"/>
			</g>
		</g>
	</g>
	<rect x="3" y="3" style="opacity:0.11;fill:none;" width="24" height="24"/>
	<path style="fill:#CDCDCD;" d="M13,7H9V5h4V7z M5,25h6v-2H5V25z M19,25h6v-2h-6V25z M21,5h-4v2h4V5z M25,15.509v6.454
		C25,21.983,24.983,22,24.962,22h-5.925C19.017,22,19,21.983,19,21.962V17h-8v5H5v-6.491c0-0.662,0.164-1.314,0.478-1.896L8.5,8H13
		v1h4V8h4.478c0.014,0,3.044,5.612,3.044,5.612C24.836,14.195,25,14.846,25,15.509z M16.001,11H14v4h2.001V11z"/>
</g>
</svg>
