<?xml version="1.0" encoding="iso-8859-1"?>
<!-- Generator: Adobe Illustrator 24.0.1, SVG Export Plug-In . SVG Version: 6.00 Build 0)  -->
<svg version="1.1" id="sights_x5F_museum-layer" xmlns="http://www.w3.org/2000/svg" xmlns:xlink="http://www.w3.org/1999/xlink"
	 x="0px" y="0px" viewBox="0 0 30 30" style="enable-background:new 0 0 30 30;" xml:space="preserve">
<g id="sights_x5F_museum_2_">
	<g>
		<g>
			<g>
				<path style="fill:#1B2433;" d="M2,29.5c-0.827,0-1.5-0.673-1.5-1.5V2c0-0.827,0.673-1.5,1.5-1.5h26c0.827,0,1.5,0.673,1.5,1.5
					v26c0,0.827-0.673,1.5-1.5,1.5H2z"/>
				<g>
					<path style="fill:#3B424C;" d="M28,1c0.551,0,1,0.449,1,1v26c0,0.551-0.449,1-1,1H2c-0.551,0-1-0.449-1-1V2
						c0-0.551,0.449-1,1-1H28 M28,0H2C0.895,0,0,0.895,0,2v26c0,1.105,0.895,2,2,2h26c1.105,0,2-0.895,2-2V2C30,0.895,29.105,0,28,0
						L28,0z"/>
				</g>
			</g>
		</g>
	</g>
	<rect id="_x3C_Path_x3E__17_" x="3" y="3" style="fill:none;" width="24" height="24"/>
	<path style="fill:#CDCDCD;" d="M24,23v-2h-1V11h1V9l-9-4L6,9v2h1v10H6v2H5v2h20v-2H24z M10,21V11h3.5v10H10z M16.5,21V11H20v10
		H16.5z"/>
</g>
</svg>
