<?xml version="1.0" encoding="iso-8859-1"?>
<!-- Generator: Adobe Illustrator 24.0.1, SVG Export Plug-In . SVG Version: 6.00 Build 0)  -->
<svg version="1.1" id="sport_x5F_swimming-layer" xmlns="http://www.w3.org/2000/svg" xmlns:xlink="http://www.w3.org/1999/xlink"
	 x="0px" y="0px" viewBox="0 0 30 30" style="enable-background:new 0 0 30 30;" xml:space="preserve">
<g id="sport_x5F_swimming_2_">
	<g>
		<g>
			<g>
				<path style="fill:#1B2433;" d="M2,29.5c-0.827,0-1.5-0.673-1.5-1.5V2c0-0.827,0.673-1.5,1.5-1.5h26c0.827,0,1.5,0.673,1.5,1.5
					v26c0,0.827-0.673,1.5-1.5,1.5H2z"/>
				<g>
					<path style="fill:#3B424C;" d="M28,1c0.551,0,1,0.449,1,1v26c0,0.551-0.449,1-1,1H2c-0.551,0-1-0.449-1-1V2
						c0-0.551,0.449-1,1-1H28 M28,0H2C0.895,0,0,0.895,0,2v26c0,1.105,0.895,2,2,2h26c1.105,0,2-0.895,2-2V2C30,0.895,29.105,0,28,0
						L28,0z"/>
				</g>
			</g>
		</g>
	</g>
	<rect x="3" y="3" style="fill:none;" width="24" height="24"/>
	<path style="fill:#CDCDCD;" d="M17.805,7l-7.657,12.227c0.59-0.184,1.324-0.326,2.296-0.326c1.778,0,2.778,0.47,3.508,0.814
		c0.546,0.257,0.82,0.386,1.592,0.386c0.773,0,1.048-0.129,1.594-0.386c0.73-0.344,1.731-0.814,3.509-0.814
		c0.313,0,0.595,0.019,0.863,0.045l-5.06-5.46c-0.273-0.294-0.343-0.723-0.179-1.089l2.046-4.564C20.922,6.507,19.954,5,18.498,5
		h-8.386l0.707,2H17.805z M22.647,21.8c-1.443,0-2.202,0.357-2.871,0.671C19.173,22.755,18.652,23,17.543,23
		c-1.107,0-1.628-0.245-2.231-0.529c-0.669-0.314-1.427-0.671-2.869-0.671c-1.442,0-2.199,0.357-2.867,0.672
		C8.974,22.755,8.454,23,7.348,23c-1.107,0-1.627-0.245-2.229-0.528C5.082,22.455,5.038,22.437,5,22.42v2.143
		C5.564,24.797,6.261,25,7.348,25c1.442,0,2.199-0.357,2.867-0.672c0.602-0.283,1.122-0.528,2.228-0.528
		c1.107,0,1.628,0.245,2.231,0.529C15.343,24.643,16.101,25,17.543,25c1.443,0,2.202-0.357,2.871-0.671
		c0.604-0.284,1.124-0.529,2.233-0.529c1.108,0,1.629,0.245,2.232,0.529c0.038,0.018,0.082,0.035,0.121,0.053v-2.144
		C24.435,22.004,23.737,21.8,22.647,21.8z M9.782,16H7.965c-1.105,0-2-0.896-2-2v-2c0-1.104,0.895-2,2-2h1.5
		c0.828,0,1.5,0.672,1.5,1.5l0.343,2.061L9.782,16z"/>
</g>
</svg>
