<?xml version="1.0" encoding="iso-8859-1"?>
<!-- Generator: Adobe Illustrator 24.0.1, SVG Export Plug-In . SVG Version: 6.00 Build 0)  -->
<svg version="1.1" id="transport_x5F_monorail-layer"
	 xmlns="http://www.w3.org/2000/svg" xmlns:xlink="http://www.w3.org/1999/xlink" x="0px" y="0px" viewBox="0 0 30 30"
	 style="enable-background:new 0 0 30 30;" xml:space="preserve">
<g id="transport_x5F_monorail_1_">
	<g>
		<path style="fill:#1B2433;" d="M2,29.5c-0.827,0-1.5-0.673-1.5-1.5V2c0-0.827,0.673-1.5,1.5-1.5h26c0.827,0,1.5,0.673,1.5,1.5v26
			c0,0.827-0.673,1.5-1.5,1.5H2z"/>
		<g>
			<path style="fill:#3B424C;" d="M28,1c0.551,0,1,0.449,1,1v26c0,0.551-0.449,1-1,1H2c-0.551,0-1-0.449-1-1V2c0-0.551,0.449-1,1-1
				H28 M28,0H2C0.895,0,0,0.895,0,2v26c0,1.105,0.895,2,2,2h26c1.105,0,2-0.895,2-2V2C30,0.895,29.105,0,28,0L28,0z"/>
		</g>
	</g>
	<path id="_x3C_Path_x3E__11_" style="fill:none;" d="M27,27H3V3h24V27z"/>
	<path style="fill:#CDCDCD;" d="M22.973,15.306L22.088,7.82c-0.09-1.58-1.4-2.82-2.99-2.82h-8.052c-1.59,0-2.9,1.24-2.99,2.82
		l-0.885,7.486c-0.082,0.784,0.023,1.577,0.306,2.314l1.531,3.48c0.324,0.843,1.135,1.4,2.038,1.4l0.62-2.978
		C11.889,18.627,12.693,18,13.615,18h2.914c0.922,0,1.726,0.627,1.949,1.522l0.568,2.978c0.904,0,1.714-0.557,2.038-1.4l1.582-3.48
		C22.95,16.884,23.055,16.091,22.973,15.306z M10.968,7h8.221c0.609,0,1.137,0.498,1.173,1.105c0,0,0.103,2.214,0.155,3.895H9.595
		c0.064-1.68,0.2-3.895,0.2-3.895C9.831,7.498,10.359,7,10.968,7z M12.072,16.5h-1.98c-0.483,0-0.867-0.407-0.839-0.89l0.048-0.82
		C9.328,14.347,9.696,14,10.14,14h1.931c0,0,0,0,0,0V16.5z M20.051,16.5h-1.98V14h1.931c0.445,0,0.812,0.347,0.839,0.791l0.048,0.82
		C20.919,16.093,20.535,16.5,20.051,16.5z M16.762,20.755l0.781,4.233c-0.004,0.005-0.006,0.007-0.01,0.012h-4.974
		c-0.004-0.004-0.005-0.007-0.009-0.011l0.781-4.234C13.458,20.308,13.867,20,14.332,20h1.429
		C16.225,20,16.634,20.308,16.762,20.755z"/>
</g>
</svg>
