<?xml version="1.0" encoding="iso-8859-1"?>
<!-- Generator: Adobe Illustrator 24.0.1, SVG Export Plug-In . SVG Version: 6.00 Build 0)  -->
<svg version="1.1" id="transport_x5F_airport-layer"
	 xmlns="http://www.w3.org/2000/svg" xmlns:xlink="http://www.w3.org/1999/xlink" x="0px" y="0px" viewBox="0 0 30 30"
	 style="enable-background:new 0 0 30 30;" xml:space="preserve">
<g id="transport_x5F_airport_1_">
	<g>
		<path style="fill:#1B2433;" d="M2,29.5c-0.827,0-1.5-0.673-1.5-1.5V2c0-0.827,0.673-1.5,1.5-1.5h26c0.827,0,1.5,0.673,1.5,1.5v26
			c0,0.827-0.673,1.5-1.5,1.5H2z"/>
		<g>
			<path style="fill:#3B424C;" d="M28,1c0.551,0,1,0.449,1,1v26c0,0.551-0.449,1-1,1H2c-0.551,0-1-0.449-1-1V2c0-0.551,0.449-1,1-1
				H28 M28,0H2C0.895,0,0,0.895,0,2v26c0,1.105,0.895,2,2,2h26c1.105,0,2-0.895,2-2V2C30,0.895,29.105,0,28,0L28,0z"/>
		</g>
	</g>
	<rect x="3" y="3.001" style="opacity:0;fill:none;" width="24" height="23.998"/>
	<path style="fill:#CDCDCD;" d="M21.389,11.548l0.931,11.143L20.01,25l-3.012-9.244c-1.886,1.672-3.803,3.224-5.346,4.301
		l0.929,3.143l-0.932,0.94l-1.933-2.894c-0.588,0.286-1.01,0.386-1.178,0.218c-0.168-0.168-0.069-0.59,0.217-1.176L5.868,18.36
		l0.94-0.932l2.879,1.298c1.072-1.592,2.728-3.657,4.529-5.691L4.999,9.992l2.309-2.309l11.185,0.889
		c3.725-3.531,5.451-4.02,6.203-3.269C25.45,6.056,24.955,7.793,21.389,11.548z"/>
</g>
</svg>
