<?xml version="1.0" encoding="iso-8859-1"?>
<!-- Generator: Adobe Illustrator 24.0.1, SVG Export Plug-In . SVG Version: 6.00 Build 0)  -->
<svg version="1.1" id="transport_x5F_rail_x5F_citymetro-layer"
	 xmlns="http://www.w3.org/2000/svg" xmlns:xlink="http://www.w3.org/1999/xlink" x="0px" y="0px" viewBox="0 0 30 30"
	 style="enable-background:new 0 0 30 30;" xml:space="preserve">
<g id="transport_x5F_rail_x5F_citymetro_3_">
	<g>
		<path style="fill:#1B2433;" d="M2,29.5c-0.827,0-1.5-0.673-1.5-1.5V2c0-0.827,0.673-1.5,1.5-1.5h26c0.827,0,1.5,0.673,1.5,1.5v26
			c0,0.827-0.673,1.5-1.5,1.5H2z"/>
		<g>
			<path style="fill:#3B424C;" d="M28,1c0.551,0,1,0.449,1,1v26c0,0.551-0.449,1-1,1H2c-0.551,0-1-0.449-1-1V2c0-0.551,0.449-1,1-1
				H28 M28,0H2C0.895,0,0,0.895,0,2v26c0,1.105,0.895,2,2,2h26c1.105,0,2-0.895,2-2V2C30,0.895,29.105,0,28,0L28,0z"/>
		</g>
	</g>
	<g id="_x3C_Path_x3E__1_">
	</g>
	<path style="fill:#CDCDCD;" d="M15.003,10.765c-1.356,0-3.498,0.355-3.498,2.733v1.831h7v-1.831
		C18.505,11.119,16.358,10.765,15.003,10.765z M14.223,21.5L12,25h6.006l-2.254-3.5H14.223z M18,20L18,20
		c0.69,0,1.25-0.56,1.25-1.25l0,0c0-0.69-0.56-1.25-1.25-1.25l0,0c-0.69,0-1.25,0.56-1.25,1.25l0,0C16.75,19.44,17.31,20,18,20z
		 M12,20L12,20c0.69,0,1.25-0.56,1.25-1.25l0,0c0-0.69-0.56-1.25-1.25-1.25l0,0c-0.69,0-1.25,0.56-1.25,1.25l0,0
		C10.75,19.44,11.31,20,12,20z M15,5c-6.349,0-9.991,3.082-9.991,8.456V25H9l2.586-3.5H10c-0.55,0-1-0.45-1-1v-7.131
		C9,10.365,11.301,8.5,15.003,8.5s6.003,1.865,6.003,4.869V20.5c0,0.552-0.448,1-1,1H18.35l2.657,3.5h3.985V13.456
		C24.991,8.082,21.349,5,15,5z"/>
</g>
</svg>
