<?xml version="1.0" encoding="iso-8859-1"?>
<!-- Generator: Adobe Illustrator 24.0.1, SVG Export Plug-In . SVG Version: 6.00 Build 0)  -->
<svg version="1.1" id="transport_x5F_inclined-layer"
	 xmlns="http://www.w3.org/2000/svg" xmlns:xlink="http://www.w3.org/1999/xlink" x="0px" y="0px" viewBox="0 0 30 30"
	 style="enable-background:new 0 0 30 30;" xml:space="preserve">
<g id="transport_x5F_inclined_1_">
	<g>
		<path style="fill:#1B2433;" d="M2,29.5c-0.827,0-1.5-0.673-1.5-1.5V2c0-0.827,0.673-1.5,1.5-1.5h26c0.827,0,1.5,0.673,1.5,1.5v26
			c0,0.827-0.673,1.5-1.5,1.5H2z"/>
		<g>
			<path style="fill:#3B424C;" d="M28,1c0.551,0,1,0.449,1,1v26c0,0.551-0.449,1-1,1H2c-0.551,0-1-0.449-1-1V2c0-0.551,0.449-1,1-1
				H28 M28,0H2C0.895,0,0,0.895,0,2v26c0,1.105,0.895,2,2,2h26c1.105,0,2-0.895,2-2V2C30,0.895,29.105,0,28,0L28,0z"/>
		</g>
	</g>
	<rect id="_x3C_Path_x3E__12_" x="3" y="3" style="fill:none;" width="24" height="24"/>
	<path style="fill:#CDCDCD;" d="M22.51,5c-0.2,0-0.39,0.02-0.59,0.07L8.31,8.29C6.96,8.61,6,9.82,6,11.21V21l19-4.5v-9
		C25,6.09,23.85,5,22.51,5z M14.75,13.971L8,15.581V11.32c0-0.58,0.4-1.08,0.96-1.21l5.79-1.38V13.971z M23,12l-6.75,1.611V8.37
		l5.83-1.391c0.06-0.01,0.12-0.02,0.18-0.02c0.35,0,0.74,0.29,0.74,0.75V12z M5,24.881l20-4.743v-1.5L5,23.381V24.881z"/>
</g>
</svg>
