<?xml version="1.0" encoding="iso-8859-1"?>
<!-- Generator: Adobe Illustrator 24.0.1, SVG Export Plug-In . SVG Version: 6.00 Build 0)  -->
<svg version="1.1" id="transport_x5F_taxi-layer" xmlns="http://www.w3.org/2000/svg" xmlns:xlink="http://www.w3.org/1999/xlink"
	 x="0px" y="0px" viewBox="0 0 30 30" style="enable-background:new 0 0 30 30;" xml:space="preserve">
<g id="transport_x5F_taxi_1_">
	<g>
		<g>
			<g>
				<path style="fill:#1B2433;" d="M2,29.5c-0.827,0-1.5-0.673-1.5-1.5V2c0-0.827,0.673-1.5,1.5-1.5h26c0.827,0,1.5,0.673,1.5,1.5
					v26c0,0.827-0.673,1.5-1.5,1.5H2z"/>
				<g>
					<path style="fill:#3B424C;" d="M28,1c0.551,0,1,0.449,1,1v26c0,0.551-0.449,1-1,1H2c-0.551,0-1-0.449-1-1V2
						c0-0.551,0.449-1,1-1H28 M28,0H2C0.895,0,0,0.895,0,2v26c0,1.105,0.895,2,2,2h26c1.105,0,2-0.895,2-2V2C30,0.895,29.105,0,28,0
						L28,0z"/>
				</g>
			</g>
		</g>
	</g>
	<rect x="3" y="3" style="fill:none;" width="24" height="24"/>
	<path style="fill:#CDCDCD;" d="M24.5,14h-1.722l-1.023-2.301C21.296,10.667,20.313,10,19.251,10h-0.816L18.06,7.104
		C17.978,6.47,17.485,6,16.905,6h-3.81c-0.581,0-1.073,0.47-1.155,1.104L11.565,10h-0.782c-1.062,0-2.045,0.667-2.504,1.699
		L7.256,14H5.5c-0.667,0.667-0.667,1.333,0,2h0.517v6c0,0.552,0.448,1,1,1H10c0.552,0,1-0.448,1-1v-1h8v1c0,0.552,0.448,1,1,1h3
		c0.552,0,1-0.448,1-1v-6h0.5C25.167,15.333,25.167,14.667,24.5,14z M11,19H8.5c-0.667-0.667-0.667-1.333,0-2H11V19z M9,15
		l1.106-2.488c0.141-0.315,0.4-0.512,0.677-0.512h8.469c0.277,0,0.536,0.196,0.677,0.512L21.034,15H9z M21.5,19H19v-2h2.5
		C22.167,17.667,22.167,18.333,21.5,19z"/>
</g>
</svg>
