<?xml version="1.0" encoding="iso-8859-1"?>
<!-- Generator: Adobe Illustrator 24.0.1, SVG Export Plug-In . SVG Version: 6.00 Build 0)  -->
<svg version="1.1" id="transport_x5F_rail_x5F_light-layer"
	 xmlns="http://www.w3.org/2000/svg" xmlns:xlink="http://www.w3.org/1999/xlink" x="0px" y="0px" viewBox="0 0 30 30"
	 style="enable-background:new 0 0 30 30;" xml:space="preserve">
<g id="transport_x5F_rail_x5F_light_3_">
	<g>
		<path style="fill:#1B2433;" d="M2,29.5c-0.827,0-1.5-0.673-1.5-1.5V2c0-0.827,0.673-1.5,1.5-1.5h26c0.827,0,1.5,0.673,1.5,1.5v26
			c0,0.827-0.673,1.5-1.5,1.5H2z"/>
		<g>
			<path style="fill:#3B424C;" d="M28,1c0.551,0,1,0.449,1,1v26c0,0.551-0.449,1-1,1H2c-0.551,0-1-0.449-1-1V2c0-0.551,0.449-1,1-1
				H28 M28,0H2C0.895,0,0,0.895,0,2v26c0,1.105,0.895,2,2,2h26c1.105,0,2-0.895,2-2V2C30,0.895,29.105,0,28,0L28,0z"/>
		</g>
	</g>
	<path id="_x3C_Path_x3E__4_" style="fill:none;" d="M27,27H3V3h24V27z"/>
	<path style="fill:#CDCDCD;" d="M19,20h2.5v-4.95c0-0.7-0.04-1.4-0.11-2.09l-0.61-5.27C20.62,6.16,19.33,5,17.8,5h-5.6
		c-1.53,0-2.82,1.16-2.98,2.69l-0.61,5.27c-0.07,0.69-0.11,1.39-0.11,2.09V20H11l-5,5h3l4.5-5h3l5.5,5h3L19,20z M11.26,8.365
		c0.06-0.64,0.6-1.37,1.24-1.37h5c0.64,0,1.18,0.73,1.24,1.37l0.611,4.775c0.032,0.283,0.055,0.571,0.071,0.86H10.58
		c0.016-0.289,0.038-0.577,0.071-0.86L11.26,8.365z M15,18.5c-0.828,0-1.5-0.672-1.5-1.5s0.672-1.5,1.5-1.5s1.5,0.672,1.5,1.5
		S15.828,18.5,15,18.5z"/>
</g>
</svg>
