<?xml version="1.0" encoding="iso-8859-1"?>
<!-- Generator: Adobe Illustrator 24.0.1, SVG Export Plug-In . SVG Version: 6.00 Build 0)  -->
<svg version="1.1" id="transport_x5F_train-layer" xmlns="http://www.w3.org/2000/svg" xmlns:xlink="http://www.w3.org/1999/xlink"
	 x="0px" y="0px" viewBox="0 0 30 30" style="enable-background:new 0 0 30 30;" xml:space="preserve">
<g id="transport_x5F_train_1_">
	<g>
		<g>
			<path style="fill:#1B2433;" d="M2,29.5c-0.827,0-1.5-0.673-1.5-1.5V2c0-0.827,0.673-1.5,1.5-1.5h26c0.827,0,1.5,0.673,1.5,1.5v26
				c0,0.827-0.673,1.5-1.5,1.5H2z"/>
			<g>
				<path style="fill:#3B424C;" d="M28,1c0.551,0,1,0.449,1,1v26c0,0.551-0.449,1-1,1H2c-0.551,0-1-0.449-1-1V2c0-0.551,0.449-1,1-1
					H28 M28,0H2C0.895,0,0,0.895,0,2v26c0,1.105,0.895,2,2,2h26c1.105,0,2-0.895,2-2V2C30,0.895,29.105,0,28,0L28,0z"/>
			</g>
		</g>
	</g>
	<path id="_x3C_Path_x3E__7_" style="fill:none;" d="M27,27H3V3h24V27z"/>
	<path style="fill:#CDCDCD;" d="M19.31,20c1.73,0,3.1-1.46,3-3.18l-0.64-9C21.57,6.24,20.26,5,18.68,5h-7.36
		C9.74,5,8.43,6.24,8.33,7.82l-0.64,9c-0.1,1.72,1.27,3.18,3,3.18H11l-5,5h3l4.5-5h3l4.5,5h3l-5-5H19.31z M12.5,17.5h-1.785
		c-0.577,0-1.035-0.487-0.998-1.063l0.032-0.5C9.782,15.41,10.219,15,10.746,15H12.5V17.5z M10,12.5l0.288-4.51
		C10.322,7.44,10.778,7,11.337,7h7.326c0.558,0,1.015,0.44,1.049,0.99L20,12.5H10z M17.5,17.5V15h1.754
		c0.528,0,0.965,0.41,0.998,0.937l0.032,0.5c0.036,0.576-0.421,1.063-0.998,1.063H17.5z"/>
</g>
</svg>
