<?xml version="1.0" encoding="iso-8859-1"?>
<!-- Generator: Adobe Illustrator 24.0.1, SVG Export Plug-In . SVG Version: 6.00 Build 0)  -->
<svg version="1.1" id="transport_x5F_aerial-layer" xmlns="http://www.w3.org/2000/svg" xmlns:xlink="http://www.w3.org/1999/xlink"
	 x="0px" y="0px" viewBox="0 0 30 30" style="enable-background:new 0 0 30 30;" xml:space="preserve">
<g id="transport_x5F_aerial_1_">
	<g>
		<path style="fill:#1B2433;" d="M2,29.5c-0.827,0-1.5-0.673-1.5-1.5V2c0-0.827,0.673-1.5,1.5-1.5h26c0.827,0,1.5,0.673,1.5,1.5v26
			c0,0.827-0.673,1.5-1.5,1.5H2z"/>
		<g>
			<path style="fill:#3B424C;" d="M28,1c0.551,0,1,0.449,1,1v26c0,0.551-0.449,1-1,1H2c-0.551,0-1-0.449-1-1V2c0-0.551,0.449-1,1-1
				H28 M28,0H2C0.895,0,0,0.895,0,2v26c0,1.105,0.895,2,2,2h26c1.105,0,2-0.895,2-2V2C30,0.895,29.105,0,28,0L28,0z"/>
		</g>
	</g>
	<path style="opacity:0;fill:none;" d="M3,3v24h24V3H3z"/>
	<path style="fill:#CDCDCD;" d="M25,7V5L5,7.5v2l9-1.125V12H6.716C5.768,12,5,12.768,5,13.716v7.325C5,23.228,6.772,25,8.959,25
		h12.082C23.228,25,25,23.228,25,21.041v-7.322C25,12.77,24.23,12,23.281,12H16V8.126L25,7z M14,19.5H8V14h6V19.5z M16,14h6v5.5h-6
		V14z"/>
</g>
</svg>
