<?xml version="1.0" encoding="iso-8859-1"?>
<!-- Generator: Adobe Illustrator 23.0.2, SVG Export Plug-In . SVG Version: 6.00 Build 0)  -->
<svg version="1.1" id="tmc_x5F_blocking_x5F_congestion_x5F_pole2-layer"
	 xmlns="http://www.w3.org/2000/svg" xmlns:xlink="http://www.w3.org/1999/xlink" x="0px" y="0px" viewBox="0 0 26 29.878"
	 style="enable-background:new 0 0 26 29.878;" xml:space="preserve">
<g id="tmc_x5F_blocking_x5F_congestion_x5F_pole2_3_">
	<path style="opacity:0;fill:#8C8C8C;" d="M26,29.878H0V0h26V29.878z"/>
	<path style="fill:#323232;" d="M1.78,17.971c-1.562-1.555-1.574-3.829-0.028-5.656L10.06,2.066c0.773-0.9,1.799-1.39,2.898-1.39
		c1.118,0,2.197,0.521,2.889,1.394l8.373,10.252c1.584,1.852,1.575,4.019-0.031,5.646L12.984,29.171L1.78,17.971z"/>
	<path style="fill:#FFFFFF;" d="M12.966,1.177c0.965,0,1.894,0.442,2.496,1.204l8.378,10.258c1.362,1.592,1.482,3.477,0,4.979
		L12.994,28.464L2.143,17.618c-1.381-1.375-1.38-3.348,0-4.979l8.314-10.258C11.174,1.547,12.085,1.177,12.966,1.177 M12.967,0.177
		L12.967,0.177c-1.247,0-2.408,0.551-3.269,1.552l-8.332,10.28c-1.711,2.022-1.688,4.567,0.07,6.317l10.85,10.845l0.707,0.707
		l0.707-0.707l10.847-10.846c1.784-1.807,1.803-4.292,0.053-6.337L16.237,1.748C15.462,0.769,14.236,0.177,12.967,0.177
		L12.967,0.177z M16.645,10.405l-2.025-2.22c-0.48-0.51-1.15-0.8-1.84-0.8H9.53c-0.69,0-1.36,0.29-1.84,0.8l-1.94,2.22
		c-0.39,0.63-0.59,1.35-0.59,2.09v1.64c0,0.69,0.56,1.25,1.25,1.25h1.44l0.255-0.539c0.204-0.431,0.456-0.837,0.753-1.21
		l0.962-1.211l0.83-0.9c0.32-0.35,0.72-0.63,1.15-0.82H8.23c-0.28,0-0.55-0.07-0.79-0.22l-0.28-0.17l1.27-1.45
		c0.28-0.31,0.68-0.48,1.1-0.48h3.25c0.42,0,0.82,0.17,1.1,0.48l1.354,1.54H16.645z M18.31,12.205c-0.35-0.37-0.81-0.63-1.3-0.74
		c-0.18-0.04-0.36-0.06-0.54-0.06h-3.24c-0.7,0-1.37,0.29-1.84,0.8l-1.13,1.22l-0.82,1c-0.38,0.63-0.59,1.35-0.59,2.09v1.64
		c0,0.69,0.56,1.25,1.25,1.25h1.75v-1h5.99v1h1.75c0.69,0,1.25-0.56,1.25-1.25v-1.64c0-0.74-0.2-1.46-0.59-2.09L18.31,12.205z
		 M12.1,17.105h-1c-0.138,0-0.25-0.112-0.25-0.25v-1c0-0.138,0.112-0.25,0.25-0.25h1c0.138,0,0.25,0.112,0.25,0.25v1
		C12.35,16.993,12.238,17.105,12.1,17.105z M18.59,17.105h-1c-0.138,0-0.25-0.112-0.25-0.25v-1c0-0.138,0.112-0.25,0.25-0.25h1
		c0.138,0,0.25,0.112,0.25,0.25v1C18.84,16.993,18.728,17.105,18.59,17.105z M18.56,14.505c-0.24,0.15-0.51,0.22-0.79,0.22h-5.85
		c-0.28,0-0.55-0.07-0.78-0.22l-0.29-0.17l1.27-1.45c0.15-0.16,0.33-0.28,0.53-0.37c0.18-0.07,0.38-0.11,0.58-0.11h3.24
		c0.24,0,0.48,0.06,0.68,0.16c0.16,0.08,0.3,0.19,0.42,0.32l1.27,1.45L18.56,14.505z M8.42,13.03h-1c-0.138,0-0.25-0.112-0.25-0.25
		v-1c0-0.138,0.112-0.25,0.25-0.25h1c0.138,0,0.25,0.112,0.25,0.25v1C8.67,12.918,8.559,13.03,8.42,13.03z"/>
</g>
</svg>
