<?xml version="1.0" encoding="iso-8859-1"?>
<!-- Generator: Adobe Illustrator 23.0.2, SVG Export Plug-In . SVG Version: 6.00 Build 0)  -->
<svg version="1.1" id="tmc_x5F_blocking_x5F_accident_x5F_pole-layer"
	 xmlns="http://www.w3.org/2000/svg" xmlns:xlink="http://www.w3.org/1999/xlink" x="0px" y="0px" viewBox="0 0 26 29.878"
	 style="enable-background:new 0 0 26 29.878;" xml:space="preserve">
<g id="tmc_x5F_blocking_x5F_accident_x5F_pole">
	<path style="opacity:0;fill:#8C8C8C;" d="M26,29.878H0V0h26V29.878z"/>
	<path style="fill:#323232;" d="M1.78,17.971c-1.562-1.555-1.573-3.828-0.028-5.655L10.09,1.981c0.773-0.9,1.799-1.39,2.898-1.39
		c1.117,0,2.197,0.521,2.889,1.394l8.342,10.34c1.584,1.848,1.574,4.016-0.033,5.644L12.985,29.171L1.78,17.971z"/>
	<path style="fill:#FFFFFF;" d="M12.998,1.091c0.964,0,1.894,0.442,2.496,1.204l8.346,10.344c1.363,1.592,1.482,3.477,0,4.979
		L12.994,28.465L2.143,17.618c-1.381-1.375-1.379-3.348,0-4.979l8.346-10.344C11.205,1.462,12.115,1.091,12.998,1.091 M12.998,0.091
		L12.998,0.091c-1.248,0-2.408,0.551-3.269,1.552L1.364,12.011c-1.708,2.021-1.685,4.566,0.073,6.316l10.85,10.845l0.707,0.707
		l0.707-0.707l10.846-10.846c1.784-1.808,1.803-4.293,0.053-6.337l-8.327-10.32C15.494,0.684,14.268,0.091,12.998,0.091
		L12.998,0.091z M7.83,18.982l-3.309-1.855l0.945,1.855H7.83z M16.111,19h3.942l1.596-2L16.111,19z M10.512,20.064l1.021-1.021
		l1.632,0.076c0.329,0.018,0.651-0.022,0.963-0.123c0.626-0.206,1.122-0.76,1.288-1.44l0.264-1.089l2.066-0.93
		c0.373-0.17,0.673-0.42,0.861-0.731c0.275-0.449,0.405-0.97,0.369-1.498L18.9,11.676l1.021-1.021l-0.724-0.724l-0.427,0.427
		l-0.121-0.364c-0.201-0.603-0.54-1.151-0.989-1.6l-1.159-1.159c-0.5-0.5-1.31-0.5-1.809,0l-1.267,1.267l0.724,0.724l-5.066,5.066
		l-0.724-0.724l-1.267,1.267c-0.5,0.5-0.5,1.31,0,1.809l1.159,1.159c0.449,0.449,0.997,0.788,1.6,0.989l0.364,0.121l-0.427,0.427
		L10.512,20.064z M14.901,10.349l0.732-0.732c0.098-0.098,0.256-0.098,0.354,0l0.732,0.732c0.098,0.098,0.098,0.256,0,0.354
		l-0.732,0.732c-0.098,0.098-0.256,0.098-0.354,0l-0.732-0.732C14.803,10.604,14.803,10.446,14.901,10.349z M9.472,15.777
		l0.732-0.732c0.098-0.098,0.256-0.098,0.354,0l0.732,0.732c0.098,0.098,0.098,0.256,0,0.354l-0.732,0.732
		c-0.098,0.098-0.256,0.098-0.354,0L9.472,16.13C9.375,16.033,9.375,15.874,9.472,15.777z M11.391,17.615
		c0.069-0.271,0.206-0.518,0.405-0.717l4.961-4.961c0.195-0.195,0.445-0.337,0.717-0.405l0.344-0.083l0.137,1.925
		c0.022,0.318-0.058,0.63-0.221,0.901c-0.101,0.166-0.279,0.271-0.409,0.329L14.8,15.74l-0.38,1.574
		c-0.083,0.344-0.318,0.615-0.612,0.713c-0.188,0.058-0.38,0.083-0.579,0.072l-1.925-0.138L11.391,17.615z"/>
</g>
</svg>
