<?xml version="1.0" encoding="iso-8859-1"?>
<!-- Generator: Adobe Illustrator 23.0.2, SVG Export Plug-In . SVG Version: 6.00 Build 0)  -->
<svg version="1.1" id="tmc_x5F_blocking_x5F_other_x5F_pole-layer"
	 xmlns="http://www.w3.org/2000/svg" xmlns:xlink="http://www.w3.org/1999/xlink" x="0px" y="0px" viewBox="0 0 26 29.878"
	 style="enable-background:new 0 0 26 29.878;" xml:space="preserve">
<g id="tmc_x5F_blocking_x5F_other_x5F_pole">
	<path style="opacity:0;fill:#8C8C8C;" d="M26,29.878H0V0h26V29.878z"/>
	<path style="fill:#323232;" d="M1.795,17.971c-1.561-1.555-1.573-3.828-0.028-5.655l8.343-10.021
		c0.769-0.894,1.795-1.384,2.894-1.384c1.117,0,2.197,0.521,2.889,1.394l8.338,10.014c1.588,1.854,1.578,4.022-0.029,5.65L13,29.171
		L1.795,17.971z"/>
	<path style="fill:#FFFFFF;" d="M13.004,1.411c0.964,0,1.894,0.441,2.496,1.204l8.346,10.023c1.363,1.592,1.482,3.477,0,4.979
		L13,28.465L2.148,17.618c-1.381-1.375-1.379-3.348,0-4.979l8.346-10.023C11.211,1.781,12.122,1.411,13.004,1.411 M13.004,0.411
		L13.004,0.411c-1.248,0-2.408,0.551-3.268,1.552L1.38,11.998c-1.718,2.033-1.694,4.579,0.064,6.328l10.85,10.845L13,29.878
		l0.707-0.707l10.846-10.846c1.784-1.808,1.803-4.293,0.053-6.337L16.269,1.976C15.5,1.003,14.273,0.411,13.004,0.411L13.004,0.411z
		 M14.716,20.139c0,0.947-0.758,1.724-1.724,1.724c-0.947,0-1.704-0.777-1.704-1.724c0-0.928,0.757-1.704,1.704-1.704
		C13.958,18.435,14.716,19.211,14.716,20.139z M14.204,16.33H11.78l-0.537-8.533h3.5L14.204,16.33z"/>
</g>
</svg>
