<?xml version="1.0" encoding="iso-8859-1"?>
<!-- Generator: Adobe Illustrator 23.0.2, SVG Export Plug-In . SVG Version: 6.00 Build 0)  -->
<svg version="1.1" id="tmc_x5F_blocking_roadworks_x5F_pole-layer"
	 xmlns="http://www.w3.org/2000/svg" xmlns:xlink="http://www.w3.org/1999/xlink" x="0px" y="0px" viewBox="0 0 26 29.878"
	 style="enable-background:new 0 0 26 29.878;" xml:space="preserve">
<g id="tmc_x5F_blocking_roadworks_x5F_pole_11_">
	<path style="opacity:0;fill:#8C8C8C;" d="M26,29.878H0V0h26V29.878z"/>
	<path style="fill:#323232;" d="M1.795,17.971c-1.562-1.555-1.574-3.828-0.028-5.655l8.343-10.021
		c0.769-0.895,1.795-1.384,2.894-1.384c1.117,0,2.197,0.521,2.889,1.394l8.338,10.014c1.588,1.854,1.578,4.022-0.029,5.65L13,29.171
		L1.795,17.971z"/>
	<path style="fill:#FFFFFF;" d="M13.004,1.411c0.964,0,1.894,0.441,2.496,1.204l8.346,10.023c1.363,1.592,1.482,3.477,0,4.979
		L13,28.464L2.148,17.618c-1.381-1.375-1.379-3.348,0-4.979l8.346-10.023C11.211,1.781,12.122,1.411,13.004,1.411 M13.004,0.411
		L13.004,0.411c-1.248,0-2.408,0.551-3.268,1.552L1.38,11.998c-1.718,2.033-1.695,4.578,0.064,6.328l10.85,10.845L13,29.878
		l0.707-0.707l10.846-10.846c1.784-1.808,1.803-4.293,0.053-6.337L16.269,1.976C15.5,1.003,14.273,0.411,13.004,0.411L13.004,0.411z
		 M12.429,15.675c0.018-0.332-0.13-0.651-0.394-0.851l-2.945-2.235l-0.21,0.36c-0.22,0.39-0.41,0.78-0.58,1.19l-0.677,2.129
		l-1.364,3.051h1.314l2.109-4.672l1.317,1.212l0.138,3.46h1.092L12.429,15.675z M18.589,14.348c-0.401-0.54-1.209-0.539-1.609,0.001
		l-1.17,1.58l-2.29-1.74l-0.139-4.054C13.37,9.859,13.247,9.6,13.039,9.419l-0.7-0.61c-0.185-0.161-0.422-0.25-0.667-0.25H9.787
		c-0.335,0-0.648,0.168-0.833,0.447l-1.144,1.723l7.58,5.76l-1.86,2.51c-0.098,0.132-0.004,0.32,0.161,0.32h6.648l1.142-1.077
		L18.589,14.348z M9.799,11.359l-0.876-0.665l0.841-1.018l0.965,0.043L9.799,11.359z M11.429,12.599l0.969-1.781l0.118,2.61
		L11.429,12.599z M14.189,6.809c-0.64,0-1.16,0.52-1.16,1.16c0,0.65,0.52,1.17,1.16,1.17s1.16-0.52,1.16-1.17
		C15.349,7.329,14.829,6.809,14.189,6.809z"/>
</g>
</svg>
