<?xml version="1.0" encoding="iso-8859-1"?>
<!-- Generator: Adobe Illustrator 24.0.1, SVG Export Plug-In . SVG Version: 6.00 Build 0)  -->
<svg version="1.1" id="automotive_x5F_wash_x5F_car-layer"
	 xmlns="http://www.w3.org/2000/svg" xmlns:xlink="http://www.w3.org/1999/xlink" x="0px" y="0px" viewBox="0 0 30 30"
	 style="enable-background:new 0 0 30 30;" xml:space="preserve">
<g id="automotive_x5F_wash_x5F_car_3_">
	<g>
		<g>
			<g>
				<path style="fill:#FFFFFF;" d="M2,29.5c-0.827,0-1.5-0.673-1.5-1.5V2c0-0.827,0.673-1.5,1.5-1.5h26c0.827,0,1.5,0.673,1.5,1.5
					v26c0,0.827-0.673,1.5-1.5,1.5H2z"/>
				<path style="fill:#9F9FB4;" d="M28,1c0.551,0,1,0.449,1,1v26c0,0.551-0.449,1-1,1H2c-0.551,0-1-0.449-1-1V2c0-0.551,0.449-1,1-1
					H28 M28,0H2C0.895,0,0,0.895,0,2v26c0,1.105,0.895,2,2,2h26c1.105,0,2-0.895,2-2V2C30,0.895,29.105,0,28,0L28,0z"/>
			</g>
		</g>
	</g>
	<rect x="3" y="3" style="fill:none;" width="24" height="24"/>
	<path style="fill:#494849;" d="M18.5,7c0-1.105,0.895-2,2-2s2,0.895,2,2c0,1.104-0.895,2-2,2S18.5,8.104,18.5,7z M15,9
		c1.105,0,2-0.896,2-2c0-1.105-0.895-2-2-2s-2,0.895-2,2C13,8.104,13.895,9,15,9z M24,13c0.366,0,0.705-0.106,1-0.277V9.277
		C24.705,9.106,24.366,9,24,9c-1.105,0-2,0.895-2,2C22,12.104,22.895,13,24,13z M5,12.723C5.295,12.894,5.634,13,6,13
		c1.105,0,2-0.896,2-2c0-1.105-0.895-2-2-2C5.634,9,5.295,9.106,5,9.277V12.723z M22.761,16H24.5c0.667,0.667,0.667,1.333,0,2H24v6
		c0,0.552-0.448,1-1,1h-3c-0.552,0-1-0.448-1-1v-1h-8v1c0,0.552-0.448,1-1,1H7c-0.552,0-1-0.448-1-1v-6H5.5
		c-0.667-0.667-0.667-1.333,0-2h1.739l1.023-2.301C8.721,12.667,9.704,12,10.766,12h8.469c1.062,0,2.045,0.667,2.504,1.699
		L22.761,16z M11,19H8.5c-0.667,0.667-0.667,1.333,0,2H11V19z M21.017,17l-1.106-2.488C19.771,14.196,19.511,14,19.234,14h-8.469
		c-0.277,0-0.536,0.196-0.677,0.512L8.983,17H21.017z M21.508,19H19v2h2.508C22.21,20.38,22.159,19.71,21.508,19z M9.5,9
		c1.105,0,2-0.896,2-2c0-1.105-0.895-2-2-2s-2,0.895-2,2C7.5,8.104,8.395,9,9.5,9z"/>
</g>
</svg>
