<?xml version="1.0" encoding="iso-8859-1"?>
<!-- Generator: Adobe Illustrator 24.0.1, SVG Export Plug-In . SVG Version: 6.00 Build 0)  -->
<svg version="1.1" id="automotive_x5F_dealership_x5F_car-layer"
	 xmlns="http://www.w3.org/2000/svg" xmlns:xlink="http://www.w3.org/1999/xlink" x="0px" y="0px" viewBox="0 0 30 30"
	 style="enable-background:new 0 0 30 30;" xml:space="preserve">
<g id="automotive_x5F_dealership_x5F_car_3_">
	<g>
		<g>
			<g>
				<path style="fill:#FFFFFF;" d="M2,29.5c-0.827,0-1.5-0.673-1.5-1.5V2c0-0.827,0.673-1.5,1.5-1.5h26c0.827,0,1.5,0.673,1.5,1.5
					v26c0,0.827-0.673,1.5-1.5,1.5H2z"/>
				<path style="fill:#9F9FB4;" d="M28,1c0.551,0,1,0.449,1,1v26c0,0.551-0.449,1-1,1H2c-0.551,0-1-0.449-1-1V2c0-0.551,0.449-1,1-1
					H28 M28,0H2C0.895,0,0,0.895,0,2v26c0,1.105,0.895,2,2,2h26c1.105,0,2-0.895,2-2V2C30,0.895,29.105,0,28,0L28,0z"/>
			</g>
		</g>
	</g>
	<rect x="3" y="3" style="fill:none;" width="24" height="24"/>
	<path style="fill:#494849;" d="M22.761,16l-1.023-2.301c-0.42-0.945-1.281-1.577-2.238-1.679v2.049
		c0.169,0.082,0.318,0.232,0.411,0.442L21.017,17H8.983l1.106-2.488c0.094-0.21,0.242-0.36,0.411-0.442v-2.049
		c-0.957,0.101-1.818,0.733-2.238,1.679L7.239,16H5.5c-0.667,0.667-0.667,1.333,0,2H6v6c0,0.552,0.448,1,1,1h3c0.552,0,1-0.448,1-1
		v-1h8v1c0,0.552,0.448,1,1,1h3c0.552,0,1-0.448,1-1v-6h0.5c0.667-0.667,0.667-1.333,0-2H22.761z M11,21H8.5
		c-0.667-0.667-0.667-1.333,0-2H11V21z M21.5,21H19v-2h2.5C22.167,19.667,22.167,20.333,21.5,21z M14.888,13.156
		c-0.708,0-1.295-0.229-1.904-0.742l-0.186-0.156l-1.11,1.24l0.17,0.168c0.558,0.548,1.296,0.917,2.142,1.073V16h1.998v-1.281
		c1.372-0.324,2.214-1.301,2.214-2.589c0-1.631-1.021-2.286-2.554-2.768c-1.333-0.417-1.472-0.629-1.472-1.015
		c0-0.633,0.693-0.701,0.992-0.701c0.604,0,1.11,0.193,1.64,0.628l0.188,0.154l1.072-1.237l-0.179-0.165
		c-0.567-0.521-1.176-0.831-1.901-0.968V5H14v1.13c-1.171,0.336-1.892,1.207-1.892,2.311c0,1.313,0.75,2.082,2.59,2.652
		c1.273,0.389,1.413,0.651,1.413,1.119C16.111,13.088,15.175,13.156,14.888,13.156z"/>
</g>
</svg>
