<?xml version="1.0" encoding="iso-8859-1"?>
<!-- Generator: Adobe Illustrator 24.0.1, SVG Export Plug-In . SVG Version: 6.00 Build 0)  -->
<svg version="1.1" id="automotive_x5F_charging-layer"
	 xmlns="http://www.w3.org/2000/svg" xmlns:xlink="http://www.w3.org/1999/xlink" x="0px" y="0px" viewBox="0 0 30 30"
	 style="enable-background:new 0 0 30 30;" xml:space="preserve">
<g id="automotive_x5F_charging_3_">
	<g>
		<g>
			<g>
				<path style="fill:#FFFFFF;" d="M2,29.5c-0.827,0-1.5-0.673-1.5-1.5V2c0-0.827,0.673-1.5,1.5-1.5h26c0.827,0,1.5,0.673,1.5,1.5
					v26c0,0.827-0.673,1.5-1.5,1.5H2z"/>
				<path style="fill:#9F9FB4;" d="M28,1c0.551,0,1,0.449,1,1v26c0,0.551-0.449,1-1,1H2c-0.551,0-1-0.449-1-1V2c0-0.551,0.449-1,1-1
					H28 M28,0H2C0.895,0,0,0.895,0,2v26c0,1.105,0.895,2,2,2h26c1.105,0,2-0.895,2-2V2C30,0.895,29.105,0,28,0L28,0z"/>
			</g>
		</g>
	</g>
	<rect x="3" y="3" style="fill:none;" width="24" height="24"/>
	<path style="fill:#494849;" d="M22.761,16l-1.023-2.301C21.279,12.667,20.296,12,19.234,12h-8.469
		c-1.062,0-2.045,0.667-2.504,1.699L7.239,16H5.5c-0.645,0.667-0.645,1.333,0,2H6v6c0,0.552,0.448,1,1,1h3c0.552,0,1-0.448,1-1v-1h8
		v1c0,0.552,0.448,1,1,1h3c0.552,0,1-0.448,1-1v-6h0.5c0.664-0.67,0.664-1.337,0-2H22.761z M10.089,14.512
		c0.141-0.315,0.4-0.512,0.677-0.512h8.469c0.277,0,0.536,0.196,0.677,0.512L21.017,17H8.983L10.089,14.512z M11,21H8.5
		c-0.667-0.667-0.667-1.333,0-2H11V21z M21.5,21h-2.501L19,19h2.5C22.167,19.667,22.167,20.333,21.5,21z M19,9h3v0.5
		c0,0.552-0.448,1-1,1h-2V9z M18,11h-4c-1.105,0-2-0.895-2-2v0H8C7.328,8.334,7.328,7.667,8,7h4v0c0-1.104,0.896-2,2-1.999l4,0.002
		V7v2V11z M21.001,5.507C21.553,5.507,22,5.955,22,6.507V7h-3V5.504L21.001,5.507z"/>
</g>
</svg>
