<?xml version="1.0" encoding="iso-8859-1"?>
<!-- Generator: Adobe Illustrator 24.0.1, SVG Export Plug-In . SVG Version: 6.00 Build 0)  -->
<svg version="1.1" id="business_x5F_post-layer" xmlns="http://www.w3.org/2000/svg" xmlns:xlink="http://www.w3.org/1999/xlink"
	 x="0px" y="0px" viewBox="0 0 30 30" style="enable-background:new 0 0 30 30;" xml:space="preserve">
<g id="business_x5F_post_3_">
	<g>
		<g>
			<g>
				<path style="fill:#FFFFFF;" d="M2,29.5c-0.827,0-1.5-0.673-1.5-1.5V2c0-0.827,0.673-1.5,1.5-1.5h26c0.827,0,1.5,0.673,1.5,1.5
					v26c0,0.827-0.673,1.5-1.5,1.5H2z"/>
				<path style="fill:#9F9FB4;" d="M28,1c0.551,0,1,0.449,1,1v26c0,0.551-0.449,1-1,1H2c-0.551,0-1-0.449-1-1V2c0-0.551,0.449-1,1-1
					H28 M28,0H2C0.895,0,0,0.895,0,2v26c0,1.105,0.895,2,2,2h26c1.105,0,2-0.895,2-2V2C30,0.895,29.105,0,28,0L28,0z"/>
			</g>
		</g>
	</g>
	<rect x="3" y="3" style="fill:none;" width="24" height="24"/>
	<path style="fill:#494849;" d="M5,9.958V9.002h20v0.956c0,0.336-0.176,0.647-0.464,0.82l-9.021,5.618
		c-0.317,0.19-0.712,0.19-1.029,0l-9.021-5.618C5.176,10.606,5,10.294,5,9.958z M25,12.5l-8.91,5.792
		c-0.663,0.431-1.517,0.431-2.18,0L5,12.5v8.643C5,21.616,5.384,22,5.857,22h18.286C24.616,22,25,21.616,25,21.143V12.5z"/>
</g>
</svg>
