<?xml version="1.0" encoding="iso-8859-1"?>
<!-- Generator: Adobe Illustrator 24.0.1, SVG Export Plug-In . SVG Version: 6.00 Build 0)  -->
<svg version="1.1" id="business_x5F_main-layer" xmlns="http://www.w3.org/2000/svg" xmlns:xlink="http://www.w3.org/1999/xlink"
	 x="0px" y="0px" viewBox="0 0 30 30" style="enable-background:new 0 0 30 30;" xml:space="preserve">
<g id="business_x5F_main_3_">
	<g>
		<path style="fill:#FFFFFF;" d="M2,29.5c-0.827,0-1.5-0.673-1.5-1.5V2c0-0.827,0.673-1.5,1.5-1.5h26c0.827,0,1.5,0.673,1.5,1.5v26
			c0,0.827-0.673,1.5-1.5,1.5H2z"/>
		<path style="fill:#9F9FB4;" d="M28,1c0.551,0,1,0.449,1,1v26c0,0.551-0.449,1-1,1H2c-0.551,0-1-0.449-1-1V2c0-0.551,0.449-1,1-1
			H28 M28,0H2C0.895,0,0,0.895,0,2v26c0,1.105,0.895,2,2,2h26c1.105,0,2-0.895,2-2V2C30,0.895,29.105,0,28,0L28,0z"/>
	</g>
	<rect x="3" y="3" style="fill:none;" width="24" height="24"/>
	<path style="fill:#494849;" d="M5,10h4v3H7v3h2v3H7v3h2v3H5V10z M25,7v18h-6v-5h-2v5h-6V7H25z M15,20h-2v3h2V20z M15,15h-2v3h2V15z
		 M15,10h-2v3h2V10z M19,15h-2v3h2V15z M19,10h-2v3h2V10z M23,20h-2v3h2V20z M23,15h-2v3h2V15z M23,10h-2v3h2V10z"/>
</g>
</svg>
