<?xml version="1.0" encoding="iso-8859-1"?>
<!-- Generator: Adobe Illustrator 24.0.1, SVG Export Plug-In . SVG Version: 6.00 Build 0)  -->
<svg version="1.1" id="business_x5F_laundry-layer" xmlns="http://www.w3.org/2000/svg" xmlns:xlink="http://www.w3.org/1999/xlink"
	 x="0px" y="0px" viewBox="0 0 30 30" style="enable-background:new 0 0 30 30;" xml:space="preserve">
<g id="business_x5F_laundry_3_">
	<g>
		<g>
			<g>
				<path style="fill:#FFFFFF;" d="M2,29.5c-0.827,0-1.5-0.673-1.5-1.5V2c0-0.827,0.673-1.5,1.5-1.5h26c0.827,0,1.5,0.673,1.5,1.5
					v26c0,0.827-0.673,1.5-1.5,1.5H2z"/>
				<path style="fill:#9F9FB4;" d="M28,1c0.551,0,1,0.449,1,1v26c0,0.551-0.449,1-1,1H2c-0.551,0-1-0.449-1-1V2c0-0.551,0.449-1,1-1
					H28 M28,0H2C0.895,0,0,0.895,0,2v26c0,1.105,0.895,2,2,2h26c1.105,0,2-0.895,2-2V2C30,0.895,29.105,0,28,0L28,0z"/>
			</g>
		</g>
	</g>
	<rect id="bounding.box_7_" x="3" y="2.5" style="fill:none;" width="24" height="24"/>
	<path style="fill:#494849;" d="M22,5H8C7.448,5,7,5.448,7,6v18h16V6C23,5.448,22.552,5,22,5z M21.002,15.999
		c0,3.318-2.683,6.001-6.001,6.001S9,19.317,9,15.999c0-3.3,2.655-5.97,5.948-5.999h0.106
		C18.347,10.029,21.002,12.699,21.002,15.999z M17,7h4v2h-4V7z M17.999,16c0,0.767-0.291,1.534-0.877,2.12
		c-1.172,1.172-3.068,1.172-4.241,0c-0.586-0.586-0.879-1.353-0.879-2.12H17.999z"/>
</g>
</svg>
