<?xml version="1.0" encoding="iso-8859-1"?>
<!-- Generator: Adobe Illustrator 24.0.1, SVG Export Plug-In . SVG Version: 6.00 Build 0)  -->
<svg version="1.1" id="connector_x5F_airport_x5F_access-layer"
	 xmlns="http://www.w3.org/2000/svg" xmlns:xlink="http://www.w3.org/1999/xlink" x="0px" y="0px" viewBox="0 0 30 30"
	 style="enable-background:new 0 0 30 30;" xml:space="preserve">
<g id="connector_x5F_airport_x5F_access_2_">
	<g>
		<path style="fill:#FFFFFF;" d="M1.984,29.5c-0.818,0-1.484-0.665-1.484-1.483V1.984C0.5,1.166,1.166,0.5,1.984,0.5h26.033
			c0.818,0,1.483,0.666,1.483,1.484v26.033c0,0.818-0.665,1.483-1.483,1.483H1.984z"/>
		<path style="fill:#9F9FB4;" d="M28.016,1C28.559,1,29,1.441,29,1.984v26.032C29,28.559,28.559,29,28.016,29H1.984
			C1.441,29,1,28.559,1,28.016V1.984C1,1.441,1.441,1,1.984,1H28.016 M28.016,0H1.984C0.888,0,0,0.888,0,1.984v26.032
			C0,29.112,0.888,30,1.984,30h26.032C29.112,30,30,29.112,30,28.016V1.984C30,0.888,29.112,0,28.016,0L28.016,0z"/>
	</g>
	<rect x="3" y="2.87" style="opacity:0;fill:none;" width="24" height="23.997"/>
	<path style="fill:#494849;" d="M7,21h16v3H7V21z M24.947,10.119c-0.251-0.461-1.301-0.379-1.699-0.496
		c-0.504-0.148-1.1-0.594-1.733-0.249l-4.172,2.277l-7.031-3.866C10.027,7.625,9.679,7.623,9.391,7.78L8.185,8.438l5.821,5.035
		l-4.172,2.276l-2.683-1.817c-0.296-0.206-0.682-0.226-0.998-0.054L5,14.507l2.656,2.882l4.076,0.591
		c0.407,0.059,0.822-0.016,1.183-0.213l10.29-5.615l0.834-0.455C24.5,11.446,25.198,10.58,24.947,10.119z"/>
</g>
</svg>
