<?xml version="1.0" encoding="iso-8859-1"?>
<!-- Generator: Adobe Illustrator 24.0.1, SVG Export Plug-In . SVG Version: 6.00 Build 0)  -->
<svg version="1.1" id="connector_x5F_entrance_x5F_access-layer"
	 xmlns="http://www.w3.org/2000/svg" xmlns:xlink="http://www.w3.org/1999/xlink" x="0px" y="0px" viewBox="0 0 30 30"
	 style="enable-background:new 0 0 30 30;" xml:space="preserve">
<g id="connector_x5F_entrance_x5F_access_2_">
	<g>
		<path style="fill:#FFFFFF;" d="M1.984,29.5c-0.818,0-1.484-0.665-1.484-1.483V1.984C0.5,1.166,1.166,0.5,1.984,0.5h26.033
			c0.818,0,1.483,0.666,1.483,1.484v26.033c0,0.818-0.665,1.483-1.483,1.483H1.984z"/>
		<path style="fill:#9F9FB4;" d="M28.016,1C28.559,1,29,1.441,29,1.984v26.032C29,28.559,28.559,29,28.016,29H1.984
			C1.441,29,1,28.559,1,28.016V1.984C1,1.441,1.441,1,1.984,1H28.016 M28.016,0H1.984C0.888,0,0,0.888,0,1.984v26.032
			C0,29.112,0.888,30,1.984,30h26.032C29.112,30,30,29.112,30,28.016V1.984C30,0.888,29.112,0,28.016,0L28.016,0z"/>
	</g>
	<rect x="3" y="3" style="fill:none;" width="24" height="24"/>
	<path style="fill:#494849;" d="M23,8h-5.992C17.003,8,17,7.997,17,7.992V6.354c0-0.675-0.651-1.159-1.297-0.965L8.425,7.572
		C7.579,7.826,7,8.605,7,9.488v11.024c0,0.883,0.579,1.662,1.425,1.916l7.278,2.183C16.349,24.805,17,24.321,17,23.646V10.008
		C17,10.003,17.003,10,17.008,10H21v11.992C21,21.997,21.003,22,21.008,22h1.985C22.997,22,23,21.997,23,21.992V8z M14,16
		c0,0-2-0.003-2-0.008v-2.985c0-0.004,2-0.004,2,0C14,13.008,14.004,16,14,16z"/>
</g>
</svg>
