<?xml version="1.0" encoding="iso-8859-1"?>
<!-- Generator: Adobe Illustrator 24.0.1, SVG Export Plug-In . SVG Version: 6.00 Build 0)  -->
<svg version="1.1" id="connector_x5F_escalator-layer"
	 xmlns="http://www.w3.org/2000/svg" xmlns:xlink="http://www.w3.org/1999/xlink" x="0px" y="0px" viewBox="0 0 30 30"
	 style="enable-background:new 0 0 30 30;" xml:space="preserve">
<g id="connector_x5F_escalator_2_">
	<g>
		<path style="fill:#FFFFFF;" d="M2,29.5c-0.827,0-1.5-0.673-1.5-1.5V2c0-0.827,0.673-1.5,1.5-1.5h26c0.827,0,1.5,0.673,1.5,1.5v26
			c0,0.827-0.673,1.5-1.5,1.5H2z"/>
		<path style="fill:#9F9FB4;" d="M28,1c0.551,0,1,0.449,1,1v26c0,0.551-0.449,1-1,1H2c-0.551,0-1-0.449-1-1V2c0-0.551,0.449-1,1-1
			H28 M28,0H2C0.895,0,0,0.895,0,2v26c0,1.105,0.895,2,2,2h26c1.105,0,2-0.895,2-2V2C30,0.895,29.105,0,28,0L28,0z"/>
	</g>
	<rect x="3" y="3" style="opacity:0;fill:none;" width="24" height="24"/>
	<path style="fill:#494849;" d="M8.929,17H8.25l0.641-5.124C8.953,11.376,9.378,11,9.883,11H11.5c0.828,0,1.5,0.672,1.5,1.5v0.429
		L8.929,17z M12,8V6c0-0.552-0.448-1-1-1h-1C9.448,5,9,5.448,9,6v3h2C11.552,9,12,8.552,12,8z M23,10h-4.243l-9,9H7
		c-1.657,0-2,1.343-2,3s0.343,3,2,3h5.243l9-9H23c1.657,0,2-1.343,2-3S24.657,10,23,10z"/>
</g>
</svg>
