<?xml version="1.0" encoding="iso-8859-1"?>
<!-- Generator: Adobe Illustrator 24.0.1, SVG Export Plug-In . SVG Version: 6.00 Build 0)  -->
<svg version="1.1" id="connector_x5F_platform-layer"
	 xmlns="http://www.w3.org/2000/svg" xmlns:xlink="http://www.w3.org/1999/xlink" x="0px" y="0px" viewBox="0 0 30 30"
	 style="enable-background:new 0 0 30 30;" xml:space="preserve">
<g id="connector_x5F_platform_2_">
	<g>
		<g>
			<path style="fill:#FFFFFF;" d="M2,29.5c-0.827,0-1.5-0.673-1.5-1.5V2c0-0.827,0.673-1.5,1.5-1.5h26c0.827,0,1.5,0.673,1.5,1.5v26
				c0,0.827-0.673,1.5-1.5,1.5H2z"/>
			<path style="fill:#9F9FB4;" d="M28,1c0.551,0,1,0.449,1,1v26c0,0.551-0.449,1-1,1H2c-0.551,0-1-0.449-1-1V2c0-0.551,0.449-1,1-1
				H28 M28,0H2C0.895,0,0,0.895,0,2v26c0,1.105,0.895,2,2,2h26c1.105,0,2-0.895,2-2V2C30,0.895,29.105,0,28,0L28,0z"/>
		</g>
	</g>
	<rect x="3" y="3" style="fill:none;" width="24" height="24"/>
	<path style="fill:#494849;" d="M25,21v2H7v2H5v-4h8l-0.429-3.822l-1.928-0.643c0,0,0.342-3.426,0.527-5.276
		c0.066-0.657,0.618-1.153,1.279-1.153c0.755,0,1.109,0.643,2.051,0.643c0.995,0,1.298-0.643,2.051-0.643
		c0.661,0,1.214,0.5,1.279,1.157l0.527,5.271l-1.929,0.643L16,21H25z M14,8.973h1c0.552,0,1-0.448,1-1V6c0-0.55-0.45-1-1-1h-1
		c-0.55,0-1,0.45-1,1v1.973C13,8.526,13.448,8.973,14,8.973z"/>
</g>
</svg>
