<?xml version="1.0" encoding="iso-8859-1"?>
<!-- Generator: Adobe Illustrator 24.0.1, SVG Export Plug-In . SVG Version: 6.00 Build 0)  -->
<svg version="1.1" id="eatdrink_x5F_fastfood-layer"
	 xmlns="http://www.w3.org/2000/svg" xmlns:xlink="http://www.w3.org/1999/xlink" x="0px" y="0px" viewBox="0 0 30 30"
	 style="enable-background:new 0 0 30 30;" xml:space="preserve">
<g id="eatdrink_x5F_fastfood_1_">
	<g>
		<g>
			<g>
				<path style="fill:#FFFFFF;" d="M2,29.5c-0.827,0-1.5-0.673-1.5-1.5V2c0-0.827,0.673-1.5,1.5-1.5h26c0.827,0,1.5,0.673,1.5,1.5
					v26c0,0.827-0.673,1.5-1.5,1.5H2z"/>
				<path style="fill:#9F9FB4;" d="M28,1c0.551,0,1,0.449,1,1v26c0,0.551-0.449,1-1,1H2c-0.551,0-1-0.449-1-1V2c0-0.551,0.449-1,1-1
					H28 M28,0H2C0.895,0,0,0.895,0,2v26c0,1.105,0.895,2,2,2h26c1.105,0,2-0.895,2-2V2C30,0.895,29.105,0,28,0L28,0z"/>
			</g>
		</g>
	</g>
	<rect x="3" y="3" style="fill:none;" width="24" height="24"/>
	<path style="fill:#494849;" d="M25,9l-1,16h-4.851c0.219-0.456,0.351-0.961,0.351-1.5v-2.763C19.814,20.249,20,19.654,20,19
		s-0.186-1.249-0.5-1.737V15c0-2.757-2.243-5-5-5h-0.406L14,9h4.5V6.985c0-0.357,0.252-0.665,0.603-0.735l4-1.25L23.5,6.5l-3,1V9H25
		z M5.5,23.472C5.484,24.311,6.161,25,7,25h9c0.828,0,1.5-0.672,1.5-1.5V22H5.51L5.5,23.472z M17.5,15.5c0-1.657-1.343-3.5-3-3.5h-6
		c-1.657,0-3,1.843-3,3.5V16h12V15.5z M17.25,18H5.75C5.336,18,5,18.448,5,19s0.336,1,0.75,1h11.5c0.414,0,0.75-0.448,0.75-1
		S17.664,18,17.25,18z"/>
</g>
</svg>
