<?xml version="1.0" encoding="iso-8859-1"?>
<!-- Generator: Adobe Illustrator 24.0.1, SVG Export Plug-In . SVG Version: 6.00 Build 0)  -->
<svg version="1.1" id="emergency_x5F_pharmacy-layer"
	 xmlns="http://www.w3.org/2000/svg" xmlns:xlink="http://www.w3.org/1999/xlink" x="0px" y="0px" viewBox="0 0 30 30"
	 style="enable-background:new 0 0 30 30;" xml:space="preserve">
<g id="emergency_x5F_pharmacy_1_">
	<g>
		<path style="fill:#FFFFFF;" d="M2,29.5c-0.827,0-1.5-0.673-1.5-1.5V2c0-0.827,0.673-1.5,1.5-1.5h26c0.827,0,1.5,0.673,1.5,1.5v26
			c0,0.827-0.673,1.5-1.5,1.5H2z"/>
		<path style="fill:#9F9FB4;" d="M28,1c0.551,0,1,0.449,1,1v26c0,0.551-0.449,1-1,1H2c-0.551,0-1-0.449-1-1V2c0-0.551,0.449-1,1-1
			H28 M28,0H2C0.895,0,0,0.895,0,2v26c0,1.105,0.895,2,2,2h26c1.105,0,2-0.895,2-2V2C30,0.895,29.105,0,28,0L28,0z"/>
	</g>
	<rect x="3" y="3" style="opacity:0;fill:none;" width="24" height="24"/>
	<path style="fill:#494849;" d="M20,8H10V6.706C10,5.764,10.764,5,11.706,5h6.589C19.236,5,20,5.764,20,6.706V8z M23,12v13L7,25.036
		V12c0-1.105,0.895-2,2-2h12C22.105,10,23,10.895,23,12z M20.5,16h-4v-4h-3v4h-4v3h4v4h3v-4h4V16z"/>
</g>
</svg>
