<?xml version="1.0" encoding="iso-8859-1"?>
<!-- Generator: Adobe Illustrator 24.0.1, SVG Export Plug-In . SVG Version: 6.00 Build 0)  -->
<svg version="1.1" id="facilities_x5F_publictoilet-layer"
	 xmlns="http://www.w3.org/2000/svg" xmlns:xlink="http://www.w3.org/1999/xlink" x="0px" y="0px" viewBox="0 0 30 30"
	 style="enable-background:new 0 0 30 30;" xml:space="preserve">
<g id="facilities_x5F_publictoilet_3_">
	<g>
		<g>
			<g>
				<path style="fill:#FFFFFF;" d="M2,29.5c-0.827,0-1.5-0.673-1.5-1.5V2c0-0.827,0.673-1.5,1.5-1.5h26c0.827,0,1.5,0.673,1.5,1.5
					v26c0,0.827-0.673,1.5-1.5,1.5H2z"/>
				<path style="fill:#9F9FB4;" d="M28,1c0.551,0,1,0.449,1,1v26c0,0.551-0.449,1-1,1H2c-0.551,0-1-0.449-1-1V2c0-0.551,0.449-1,1-1
					H28 M28,0H2C0.895,0,0,0.895,0,2v26c0,1.105,0.895,2,2,2h26c1.105,0,2-0.895,2-2V2C30,0.895,29.105,0,28,0L28,0z"/>
			</g>
		</g>
	</g>
	<rect id="bounding.box_6_" x="3" y="3" style="fill:none;" width="24" height="24"/>
	<path style="fill:#494849;" d="M24,17.985L23.199,18l0.311,7.003H21.5L21,17.988h-1l-0.5,7.015h-1.991l0.292-7.018H17
		c0,0,0-4.501,0-6.485c0-1,0.563-1.5,1.316-1.5h4.37C23.438,10,24,10.5,24,11.5C24,13.335,24,17.985,24,17.985z M13,11.5
		c0-0.828-0.672-1.5-1.5-1.5h0c-0.78,0-0.934,0.5-1.987,0.5C8.461,10.5,8.251,10,7.5,10h0C6.672,10,6,10.672,6,11.5v1l1.999,1L5,22
		h3l0.5,3h2l0.5-3h3l-3-8.5l2-1V11.5z M20,9h1c0.552,0,1-0.448,1-1V6c0-0.552-0.448-1-1-1h-1c-0.552,0-1,0.448-1,1v2
		C19,8.552,19.448,9,20,9z M9,9h1c0.552,0,1-0.448,1-1V6c0-0.552-0.448-1-1-1H9C8.448,5,8,5.448,8,6v2C8,8.552,8.448,9,9,9z"/>
</g>
</svg>
