<?xml version="1.0" encoding="iso-8859-1"?>
<!-- Generator: Adobe Illustrator 24.0.1, SVG Export Plug-In . SVG Version: 6.00 Build 0)  -->
<svg version="1.1" id="facilities_x5F_frontiercrossing-layer"
	 xmlns="http://www.w3.org/2000/svg" xmlns:xlink="http://www.w3.org/1999/xlink" x="0px" y="0px" viewBox="0 0 30 30"
	 style="enable-background:new 0 0 30 30;" xml:space="preserve">
<g id="facilities_x5F_frontiercrossing_4_">
	<g>
		<g>
			<g>
				<path style="fill:#FFFFFF;" d="M2,29.5c-0.827,0-1.5-0.673-1.5-1.5V2c0-0.827,0.673-1.5,1.5-1.5h26c0.827,0,1.5,0.673,1.5,1.5
					v26c0,0.827-0.673,1.5-1.5,1.5H2z"/>
				<path style="fill:#9F9FB4;" d="M28,1c0.551,0,1,0.449,1,1v26c0,0.551-0.449,1-1,1H2c-0.551,0-1-0.449-1-1V2c0-0.551,0.449-1,1-1
					H28 M28,0H2C0.895,0,0,0.895,0,2v26c0,1.105,0.895,2,2,2h26c1.105,0,2-0.895,2-2V2C30,0.895,29.105,0,28,0L28,0z"/>
			</g>
		</g>
	</g>
	<rect x="3" y="3" style="fill:none;" width="24" height="24"/>
	<path style="fill:#494849;" d="M10,5v3L7,9v1h12V7.767c0-1.009-0.752-1.861-1.754-1.985L10,5z M19,11h-9c0,0,0,0.44,0,1.5
		c0,1.591,1.5,1.889,1.5,3.5H18c0-2.001,1-2.319,1-4.44V11z M23.585,22.63L23.94,25h-8.885l6.234-5.964
		C22.494,19.868,23.361,21.132,23.585,22.63z M11.342,25H6l0.354-2.368C6.75,19.974,9.13,18,11.936,18h6.067
		c0.205,0,0.401,0.032,0.601,0.053L11.342,25z"/>
</g>
</svg>
