<?xml version="1.0" encoding="iso-8859-1"?>
<!-- Generator: Adobe Illustrator 24.0.1, SVG Export Plug-In . SVG Version: 6.00 Build 0)  -->
<svg version="1.1" id="goingout_x5F_main-layer" xmlns="http://www.w3.org/2000/svg" xmlns:xlink="http://www.w3.org/1999/xlink"
	 x="0px" y="0px" viewBox="0 0 30 30" style="enable-background:new 0 0 30 30;" xml:space="preserve">
<g id="goingout_x5F_main_1_">
	<g>
		<g>
			<path style="fill:#FFFFFF;" d="M2,29.5c-0.827,0-1.5-0.673-1.5-1.5V2c0-0.827,0.673-1.5,1.5-1.5h26c0.827,0,1.5,0.673,1.5,1.5v26
				c0,0.827-0.673,1.5-1.5,1.5H2z"/>
			<path style="fill:#9F9FB4;" d="M28,1c0.551,0,1,0.449,1,1v26c0,0.551-0.449,1-1,1H2c-0.551,0-1-0.449-1-1V2c0-0.551,0.449-1,1-1
				H28 M28,0H2C0.895,0,0,0.895,0,2v26c0,1.105,0.895,2,2,2h26c1.105,0,2-0.895,2-2V2C30,0.895,29.105,0,28,0L28,0z"/>
		</g>
	</g>
	<rect x="3" y="3" style="opacity:0;fill:none;" width="24" height="24"/>
	<path style="fill:#494849;" d="M6,5v11.439C6.24,21.235,10.198,25,15,25c4.802,0,8.76-3.765,9-8.561V5H6z M9,11.747
		c0-1.381,1.119-2.5,2.5-2.5c1.381,0,2.5,1.119,2.5,2.5c0,1.381-1.119,1.25-2.5,1.25C10.119,12.997,9,13.127,9,11.747z
		 M19.676,18.775C18.96,20.66,17.136,22,15,22s-3.96-1.34-4.676-3.225c-0.275-0.725,0.363-1.478,1.124-1.327
		c2.027,0.403,5.076,0.403,7.103,0C19.312,17.297,19.951,18.05,19.676,18.775z M18.5,12.997c-1.381,0-2.5,0.131-2.5-1.25
		c0-1.381,1.119-2.5,2.5-2.5c1.381,0,2.5,1.119,2.5,2.5C21,13.127,19.881,12.997,18.5,12.997z"/>
</g>
</svg>
