<?xml version="1.0" encoding="iso-8859-1"?>
<!-- Generator: Adobe Illustrator 24.0.1, SVG Export Plug-In . SVG Version: 6.00 Build 0)  -->
<svg version="1.1" id="goingout_x5F_karaoke-layer" xmlns="http://www.w3.org/2000/svg" xmlns:xlink="http://www.w3.org/1999/xlink"
	 x="0px" y="0px" viewBox="0 0 30 30" style="enable-background:new 0 0 30 30;" xml:space="preserve">
<g id="goingout_x5F_karaoke_1_">
	<g>
		<g>
			<g>
				<path style="fill:#FFFFFF;" d="M2,29.5c-0.827,0-1.5-0.673-1.5-1.5V2c0-0.827,0.673-1.5,1.5-1.5h26c0.827,0,1.5,0.673,1.5,1.5
					v26c0,0.827-0.673,1.5-1.5,1.5H2z"/>
				<path style="fill:#9F9FB4;" d="M28,1c0.551,0,1,0.449,1,1v26c0,0.551-0.449,1-1,1H2c-0.551,0-1-0.449-1-1V2c0-0.551,0.449-1,1-1
					H28 M28,0H2C0.895,0,0,0.895,0,2v26c0,1.105,0.895,2,2,2h26c1.105,0,2-0.895,2-2V2C30,0.895,29.105,0,28,0L28,0z"/>
			</g>
		</g>
	</g>
	<rect x="3" y="3" style="fill:none;" width="24" height="24"/>
	<path style="fill:#494849;" d="M17.737,16.323l-7.326,6.31c-0.631,0.547-1.51,0.624-2.217,0.262l-1.841,1.842l-1.061-1.061
		l1.841-1.841c-0.362-0.708-0.284-1.587,0.262-2.217l6.311-7.325L17.737,16.323z M19.77,5c-2.899,0-5.25,2.35-5.25,5.25
		c0,0.01,0.001,0.019,0.002,0.029l5.22,5.22c0.01,0,0.019,0.002,0.029,0.002c2.9,0,5.25-2.351,5.25-5.25
		C25.02,7.35,22.669,5,19.77,5z"/>
</g>
</svg>
