<?xml version="1.0" encoding="iso-8859-1"?>
<!-- Generator: Adobe Illustrator 24.0.1, SVG Export Plug-In . SVG Version: 6.00 Build 0)  -->
<svg version="1.1" id="leisure_x5F_amusement-layer"
	 xmlns="http://www.w3.org/2000/svg" xmlns:xlink="http://www.w3.org/1999/xlink" x="0px" y="0px" viewBox="0 0 30 30"
	 style="enable-background:new 0 0 30 30;" xml:space="preserve">
<g id="leisure_x5F_amusement_1_">
	<g>
		<g>
			<g>
				<path style="fill:#FFFFFF;" d="M2,29.5c-0.827,0-1.5-0.673-1.5-1.5V2c0-0.827,0.673-1.5,1.5-1.5h26c0.827,0,1.5,0.673,1.5,1.5
					v26c0,0.827-0.673,1.5-1.5,1.5H2z"/>
				<path style="fill:#9F9FB4;" d="M28,1c0.551,0,1,0.449,1,1v26c0,0.551-0.449,1-1,1H2c-0.551,0-1-0.449-1-1V2c0-0.551,0.449-1,1-1
					H28 M28,0H2C0.895,0,0,0.895,0,2v26c0,1.105,0.895,2,2,2h26c1.105,0,2-0.895,2-2V2C30,0.895,29.105,0,28,0L28,0z"/>
			</g>
		</g>
	</g>
	<rect x="3" y="3" style="opacity:0;fill:none;" width="24" height="24"/>
	<path style="fill:#494849;" d="M21.5,14.5c0-3.59-2.91-6.5-6.5-6.5s-6.5,2.91-6.5,6.5c0,2.802,1.776,5.183,4.262,6.096L11,25h8
		l-1.762-4.404C19.724,19.683,21.5,17.302,21.5,14.5z M16.491,18.727l-1.12-2.801C15.738,15.778,16,15.421,16,15
		c0-0.552-0.448-1-1-1c-0.552,0-1,0.448-1,1c0,0.421,0.262,0.778,0.63,0.925l-1.12,2.801C11.762,18.108,10.5,16.456,10.5,14.5
		c0-2.481,2.019-4.5,4.5-4.5s4.5,2.019,4.5,4.5C19.5,16.456,18.238,18.108,16.491,18.727z M7.001,9.005L6.996,9V7.998H10v1.001l0,0
		c0,0,0,0,0,0.001c0,0.552-0.448,1-1,1c0,0-0.001,0-0.001,0l0,0H7.997L7.997,9.999C7.448,9.998,7.004,9.554,7.001,9.005z
		 M13.503,6.005L13.498,6V4.998h3.004v1.001l0,0c0,0,0,0,0,0.001c0,0.552-0.448,1-1,1c0,0-0.001,0-0.001,0l0,0h-1.001l-0.001-0.001
		C13.95,6.998,13.506,6.554,13.503,6.005z M20.001,9.005L19.996,9V7.998H23v1.001l0,0c0,0,0,0,0,0.001c0,0.552-0.448,1-1,1
		c0,0-0.001,0-0.001,0l0,0h-1.001l-0.001-0.001C20.448,9.998,20.004,9.554,20.001,9.005z M6.999,16H5.997l-0.001-0.001
		c-0.549-0.002-0.993-0.446-0.996-0.994L4.996,15v-1.002H8v1.001l0,0c0,0,0,0,0,0.001c0,0.552-0.448,1-1,1C7,16,6.999,16,6.999,16
		L6.999,16z M25,14.999L25,14.999c0,0,0,0.001,0,0.001c0,0.552-0.448,1-1,1c0,0-0.001,0-0.001,0l0,0h-1.001l-0.001-0.001
		c-0.549-0.002-0.993-0.446-0.996-0.994L21.996,15v-1.002H25V14.999z M6.996,19.998H10v1.001l0,0c0,0,0,0,0,0.001
		c0,0.552-0.448,1-1,1c0,0-0.001,0-0.001,0l0,0H7.997l-0.001-0.001c-0.549-0.002-0.993-0.446-0.996-0.994L6.996,21V19.998z
		 M19.996,19.998H23v1.001l0,0c0,0,0,0,0,0.001c0,0.552-0.448,1-1,1c0,0-0.001,0-0.001,0l0,0h-1.001l-0.001-0.001
		c-0.549-0.002-0.993-0.446-0.996-0.994L19.996,21V19.998z"/>
</g>
</svg>
