<?xml version="1.0" encoding="iso-8859-1"?>
<!-- Generator: Adobe Illustrator 24.0.1, SVG Export Plug-In . SVG Version: 6.00 Build 0)  -->
<svg version="1.1" id="leisure_x5F_playground-layer"
	 xmlns="http://www.w3.org/2000/svg" xmlns:xlink="http://www.w3.org/1999/xlink" x="0px" y="0px" viewBox="0 0 30 30"
	 style="enable-background:new 0 0 30 30;" xml:space="preserve">
<g id="leisure_x5F_playground_4_">
	<g>
		<g>
			<g>
				<path style="fill:#FFFFFF;" d="M2,29.5c-0.827,0-1.5-0.673-1.5-1.5V2c0-0.827,0.673-1.5,1.5-1.5h26c0.827,0,1.5,0.673,1.5,1.5
					v26c0,0.827-0.673,1.5-1.5,1.5H2z"/>
				<path style="fill:#9F9FB4;" d="M28,1c0.551,0,1,0.449,1,1v26c0,0.551-0.449,1-1,1H2c-0.551,0-1-0.449-1-1V2c0-0.551,0.449-1,1-1
					H28 M28,0H2C0.895,0,0,0.895,0,2v26c0,1.105,0.895,2,2,2h26c1.105,0,2-0.895,2-2V2C30,0.895,29.105,0,28,0L28,0z"/>
			</g>
		</g>
	</g>
	<rect x="3" y="3" style="opacity:0;fill:none;" width="24" height="24"/>
	<path style="fill:#494849;" d="M23.537,5H6.463C5.649,5,5.02,5.649,5,6.462V25h2V7h2.501L9.5,19c0,1.105,0.895,2,2,2H12v3.428
		l1.527-0.621C13.817,23.663,14,23.367,14,23.043V21h2v2.042c0,0.324,0.183,0.621,0.473,0.765L18,24.428c0,0,0.002-3.428,0-3.428
		h0.5c1.105,0,2-0.895,2-2l0-12H23v18h2V6.462C24.98,5.649,24.351,5,23.537,5z M19,19h-0.5l-1.257-3.351
		C17.097,15.259,16.724,15,16.307,15h-2.614c-0.417,0-0.79,0.259-0.936,0.649L11.5,19H11V7h8V19z M13,11.5v-1
		C13,9.672,13.672,9,14.5,9h1c0.828,0,1.5,0.672,1.5,1.5v1c0,0.828-0.672,1.5-1.5,1.5h-1C13.672,13,13,12.328,13,11.5z"/>
</g>
</svg>
