<?xml version="1.0" encoding="iso-8859-1"?>
<!-- Generator: Adobe Illustrator 24.0.1, SVG Export Plug-In . SVG Version: 6.00 Build 0)  -->
<svg version="1.1" id="leisure_x5F_zoo-layer" xmlns="http://www.w3.org/2000/svg" xmlns:xlink="http://www.w3.org/1999/xlink"
	 x="0px" y="0px" viewBox="0 0 30 30" style="enable-background:new 0 0 30 30;" xml:space="preserve">
<g id="leisure_x5F_zoo_1_">
	<g>
		<g>
			<g>
				<path style="fill:#FFFFFF;" d="M2,29.5c-0.827,0-1.5-0.673-1.5-1.5V2c0-0.827,0.673-1.5,1.5-1.5h26c0.827,0,1.5,0.673,1.5,1.5
					v26c0,0.827-0.673,1.5-1.5,1.5H2z"/>
				<path style="fill:#9F9FB4;" d="M28,1c0.551,0,1,0.449,1,1v26c0,0.551-0.449,1-1,1H2c-0.551,0-1-0.449-1-1V2c0-0.551,0.449-1,1-1
					H28 M28,0H2C0.895,0,0,0.895,0,2v26c0,1.105,0.895,2,2,2h26c1.105,0,2-0.895,2-2V2C30,0.895,29.105,0,28,0L28,0z"/>
			</g>
		</g>
	</g>
	<rect x="3" y="3" style="opacity:0;fill:none;" width="24" height="24"/>
	<g>
		<path style="fill:#494849;" d="M25,10.75C25,7.574,22.426,5,19.25,5C19.166,5,19.083,4.996,19,5c0,0-2.381-0.001-2.38,0
			C18.081,6.369,19,8.312,19,10.467V15c0,0-2,0-2,0c-0.001,0,0-4.533,0-4.533C17,7.629,15,5,12.089,5H10.5v0.001
			C7.469,5.009,5.015,7.467,5.015,10.5C5.015,11.276,5,19.466,5,19.466C5,22.504,7.463,25,10.501,25c0,0,0.499,0,0.499,0v-3
			c-1.138-0.015-2.191-0.81-2.443-1.97c-0.293-1.349,0.564-2.681,1.913-2.973C10.951,16.952,13,16.5,13,16.5V25
			c0.001,0,4-0.001,4-0.001v-5.03c0.001,0,3.999,0.531,3.999,0.531c0,0,0.002,4.5,0.003,4.5c0,0,3.498-0.001,3.499-0.001L25,11
			C25,11,25,10.835,25,10.75z M9.5,13C8.672,13,8,12.328,8,11.5S8.672,10,9.5,10s1.5,0.672,1.5,1.5S10.328,13,9.5,13z"/>
	</g>
</g>
</svg>
