<?xml version="1.0" encoding="iso-8859-1"?>
<!-- Generator: Adobe Illustrator 24.0.1, SVG Export Plug-In . SVG Version: 6.00 Build 0)  -->
<svg version="1.1" id="nature_x5F_main-layer" xmlns="http://www.w3.org/2000/svg" xmlns:xlink="http://www.w3.org/1999/xlink"
	 x="0px" y="0px" viewBox="0 0 30 30" style="enable-background:new 0 0 30 30;" xml:space="preserve">
<g id="nature_x5F_main_1_">
	<g>
		<g>
			<g>
				<path style="fill:#FFFFFF;" d="M2,29.5c-0.827,0-1.5-0.673-1.5-1.5V2c0-0.827,0.673-1.5,1.5-1.5h26c0.827,0,1.5,0.673,1.5,1.5
					v26c0,0.827-0.673,1.5-1.5,1.5H2z"/>
				<path style="fill:#9F9FB4;" d="M28,1c0.551,0,1,0.449,1,1v26c0,0.551-0.449,1-1,1H2c-0.551,0-1-0.449-1-1V2c0-0.551,0.449-1,1-1
					H28 M28,0H2C0.895,0,0,0.895,0,2v26c0,1.105,0.895,2,2,2h26c1.105,0,2-0.895,2-2V2C30,0.895,29.105,0,28,0L28,0z"/>
			</g>
		</g>
	</g>
	<rect x="3" y="3" style="opacity:0;fill:none;" width="24" height="24"/>
	<path id="nature_x5F_main_2_" style="fill:#494849;" d="M13.09,21.058l-3.334,3.94l-1.818-1.818l3.94-3.334
		c-0.547-1.257-1.37-4.691,1.212-7.273C16.27,9.393,24,8.936,24,8.936s-0.457,7.73-3.637,10.91
		C17.782,22.428,14.347,21.605,13.09,21.058z M8.851,20.162l1.038-0.878c-0.546-2.169-0.522-5.412,1.99-7.924
		c0.704-0.704,1.574-1.286,2.516-1.773C12.927,7.016,11.143,5,11.143,5S6,10.789,6,15.286C6,17.698,7.479,19.243,8.851,20.162z"/>
</g>
</svg>
