<?xml version="1.0" encoding="iso-8859-1"?>
<!-- Generator: Adobe Illustrator 24.0.1, SVG Export Plug-In . SVG Version: 6.00 Build 0)  -->
<svg version="1.1" id="service_x5F_ticketing-layer"
	 xmlns="http://www.w3.org/2000/svg" xmlns:xlink="http://www.w3.org/1999/xlink" x="0px" y="0px" viewBox="0 0 30 30"
	 style="enable-background:new 0 0 30 30;" xml:space="preserve">
<g id="service_x5F_ticketing_3_">
	<g>
		<g>
			<g>
				<path style="fill:#FFFFFF;" d="M2,29.5c-0.827,0-1.5-0.673-1.5-1.5V2c0-0.827,0.673-1.5,1.5-1.5h26c0.827,0,1.5,0.673,1.5,1.5
					v26c0,0.827-0.673,1.5-1.5,1.5H2z"/>
				<path style="fill:#9F9FB4;" d="M28,1c0.551,0,1,0.449,1,1v26c0,0.551-0.449,1-1,1H2c-0.551,0-1-0.449-1-1V2c0-0.551,0.449-1,1-1
					H28 M28,0H2C0.895,0,0,0.895,0,2v26c0,1.105,0.895,2,2,2h26c1.105,0,2-0.895,2-2V2C30,0.895,29.105,0,28,0L28,0z"/>
			</g>
		</g>
	</g>
	<rect x="3" y="3" style="fill:none;" width="24" height="24"/>
	<path style="fill:#494849;" d="M11,9.523v10.828l-6-9.333l2.987-1.92C8.765,9.898,10.002,10.085,11,9.523z M21.5,5
		c0,0.165,0,0.327,0,0.478c0,1.381-1.119,2.5-2.5,2.5c-1.381,0-2.5-1.119-2.5-2.5c0-0.134,0-0.298,0-0.478H13v19h3.5
		c0-0.173,0-0.342,0-0.5c0-1.381,1.119-2.5,2.5-2.5c1.381,0,2.5,1.119,2.5,2.5c0,0.139,0,0.311,0,0.5H25V5H21.5z"/>
</g>
</svg>
