<?xml version="1.0" encoding="iso-8859-1"?>
<!-- Generator: Adobe Illustrator 24.0.1, SVG Export Plug-In . SVG Version: 6.00 Build 0)  -->
<svg version="1.1" id="shopping_x5F_main-layer" xmlns="http://www.w3.org/2000/svg" xmlns:xlink="http://www.w3.org/1999/xlink"
	 x="0px" y="0px" viewBox="0 0 30 30" style="enable-background:new 0 0 30 30;" xml:space="preserve">
<g id="shopping_x5F_main_1_">
	<g>
		<g>
			<g>
				<path style="fill:#FFFFFF;" d="M2,29.5c-0.827,0-1.5-0.673-1.5-1.5V2c0-0.827,0.673-1.5,1.5-1.5h26c0.827,0,1.5,0.673,1.5,1.5
					v26c0,0.827-0.673,1.5-1.5,1.5H2z"/>
				<path style="fill:#9F9FB4;" d="M28,1c0.551,0,1,0.449,1,1v26c0,0.551-0.449,1-1,1H2c-0.551,0-1-0.449-1-1V2c0-0.551,0.449-1,1-1
					H28 M28,0H2C0.895,0,0,0.895,0,2v26c0,1.105,0.895,2,2,2h26c1.105,0,2-0.895,2-2V2C30,0.895,29.105,0,28,0L28,0z"/>
			</g>
		</g>
	</g>
	<rect x="3" y="3" style="fill:none;" width="24" height="24"/>
	<path style="fill:#494849;" d="M19.949,11l-0.247-2.044C19.499,7.267,18.112,6,16.469,6h-2.937c-1.644,0-3.03,1.267-3.234,2.956
		L10.051,11H6.333l0.57,11.102C6.957,23.166,7.835,24,8.9,24h12.2c1.065,0,1.943-0.834,1.997-1.898L23.667,11H19.949z M12.283,9.196
		C12.365,8.514,12.902,8,13.531,8h2.937c0.63,0,1.166,0.514,1.249,1.196l0.172,1.703c0.059,0.589-0.403,1.1-0.995,1.1h-3.788
		c-0.592,0-1.054-0.511-0.995-1.1L12.283,9.196z"/>
</g>
</svg>
