<?xml version="1.0" encoding="iso-8859-1"?>
<!-- Generator: Adobe Illustrator 24.0.1, SVG Export Plug-In . SVG Version: 6.00 Build 0)  -->
<svg version="1.1" id="sights_x5F_attraction-layer"
	 xmlns="http://www.w3.org/2000/svg" xmlns:xlink="http://www.w3.org/1999/xlink" x="0px" y="0px" viewBox="0 0 30 30"
	 style="enable-background:new 0 0 30 30;" xml:space="preserve">
<g id="sights_x5F_attraction_1_">
	<g>
		<path style="fill:#FFFFFF;" d="M2,29.5c-0.827,0-1.5-0.673-1.5-1.5V2c0-0.827,0.673-1.5,1.5-1.5h26c0.827,0,1.5,0.673,1.5,1.5v26
			c0,0.827-0.673,1.5-1.5,1.5H2z"/>
		<path style="fill:#9F9FB4;" d="M28,1c0.551,0,1,0.449,1,1v26c0,0.551-0.449,1-1,1H2c-0.551,0-1-0.449-1-1V2c0-0.551,0.449-1,1-1
			H28 M28,0H2C0.895,0,0,0.895,0,2v26c0,1.105,0.895,2,2,2h26c1.105,0,2-0.895,2-2V2C30,0.895,29.105,0,28,0L28,0z"/>
	</g>
	<polyline style="fill:none;" points="27,3 27,27 3,27 3,3 27,3 	"/>
	<path style="fill:#494849;" d="M21,15.5c0,1.378-1.121,2.5-2.5,2.5c-1.378,0-2.5-1.122-2.5-2.5s1.122-2.5,2.5-2.5
		C19.879,13,21,14.122,21,15.5z M25,9v11c0,1.104-0.895,2-2,2H7c-1.105,0-2-0.896-2-2V9h3V7h4v2H25z M12,11H8v2h4V11z M23,15.5
		c0-2.485-2.015-4.5-4.5-4.5S14,13.015,14,15.5c0,2.485,2.015,4.5,4.5,4.5S23,17.985,23,15.5z"/>
</g>
</svg>
