<?xml version="1.0" encoding="iso-8859-1"?>
<!-- Generator: Adobe Illustrator 24.0.1, SVG Export Plug-In . SVG Version: 6.00 Build 0)  -->
<svg version="1.1" id="sport_x5F_main-layer" xmlns="http://www.w3.org/2000/svg" xmlns:xlink="http://www.w3.org/1999/xlink"
	 x="0px" y="0px" viewBox="0 0 30 30" style="enable-background:new 0 0 30 30;" xml:space="preserve">
<g id="sport_x5F_main_1_">
	<g>
		<g>
			<g>
				<path style="fill:#FFFFFF;" d="M2,29.5c-0.827,0-1.5-0.673-1.5-1.5V2c0-0.827,0.673-1.5,1.5-1.5h26c0.827,0,1.5,0.673,1.5,1.5
					v26c0,0.827-0.673,1.5-1.5,1.5H2z"/>
				<path style="fill:#9F9FB4;" d="M28,1c0.551,0,1,0.449,1,1v26c0,0.551-0.449,1-1,1H2c-0.551,0-1-0.449-1-1V2c0-0.551,0.449-1,1-1
					H28 M28,0H2C0.895,0,0,0.895,0,2v26c0,1.105,0.895,2,2,2h26c1.105,0,2-0.895,2-2V2C30,0.895,29.105,0,28,0L28,0z"/>
			</g>
		</g>
	</g>
	<rect x="3" y="3" style="opacity:0;fill:none;" width="24" height="24"/>
	<path style="fill:#494849;" d="M17,25c0,0,0-1.969,0-2.5c0-1.25-1-1.875-1.999-1.875c-1,0-2,0.625-2,1.875V25H8.366
		c-1.603,0-2.923-1.261-2.997-2.863L5,14.091l4.5,4.192C10.003,18.744,10.661,19,11.343,19h6.969c0.682,0,1.34-0.256,1.843-0.717
		L25,14.091l-0.369,8.047C24.558,23.739,23.238,25,21.634,25H17z M10.852,16.809C10.986,16.932,11.16,17,11.343,17h6.969
		c0.182,0,0.357-0.068,0.491-0.191l0.021-0.02l0.022-0.019L20.893,15H8.91L10.852,16.809z M25,5.896L21,5.04V11h-6V7.295l2-0.579
		v-0.86L13,5v6H6.997L6.984,7.31L9,6.716v-0.86L5,5v6.357L6.763,13h16.441L25,11.446V11h-2l-0.001-3.649L25,6.756V5.896z"/>
</g>
</svg>
