<?xml version="1.0" encoding="iso-8859-1"?>
<!-- Generator: Adobe Illustrator 24.0.1, SVG Export Plug-In . SVG Version: 6.00 Build 0)  -->
<svg version="1.1" id="sport_x5F_bowling-layer" xmlns="http://www.w3.org/2000/svg" xmlns:xlink="http://www.w3.org/1999/xlink"
	 x="0px" y="0px" viewBox="0 0 30 30" style="enable-background:new 0 0 30 30;" xml:space="preserve">
<g id="sport_x5F_bowling_1_">
	<g id="XMLID_6_">
		<g>
			<g>
				<path style="fill:#FFFFFF;" d="M2,29.5c-0.827,0-1.5-0.673-1.5-1.5V2c0-0.827,0.673-1.5,1.5-1.5h26c0.827,0,1.5,0.673,1.5,1.5
					v26c0,0.827-0.673,1.5-1.5,1.5H2z"/>
				<path style="fill:#9F9FB4;" d="M28,1c0.551,0,1,0.449,1,1v26c0,0.551-0.449,1-1,1H2c-0.551,0-1-0.449-1-1V2c0-0.551,0.449-1,1-1
					H28 M28,0H2C0.895,0,0,0.895,0,2v26c0,1.105,0.895,2,2,2h26c1.105,0,2-0.895,2-2V2C30,0.895,29.105,0,28,0L28,0z"/>
			</g>
		</g>
	</g>
	<rect x="3" y="3" style="opacity:0;fill:none;" width="24" height="24"/>
	<g>
		<path style="fill:#494849;" d="M17.693,10.385c-1.985,0-3.772,0.802-5.087,2.087c0.158,0.339,0.38,0.703,0.627,1.099
			c0.65,1.042,1.459,2.338,1.459,4.022c0,0.913-0.388,2.964-1.148,6.081C14.725,24.496,16.144,25,17.693,25
			C21.729,25,25,21.729,25,17.692C25,13.655,21.729,10.385,17.693,10.385z M18.132,15.394c0-0.631,0.512-1.163,1.144-1.163
			c0.632,0,1.144,0.532,1.144,1.163c0,0.632-0.512,1.145-1.144,1.145C18.644,16.539,18.132,16.026,18.132,15.394z M20.046,19.615
			c-0.632,0-1.144-0.512-1.144-1.144c0-0.632,0.512-1.164,1.144-1.164c0.632,0,1.144,0.532,1.144,1.164
			C21.19,19.103,20.678,19.615,20.046,19.615z M22.372,17.308c-0.632,0-1.144-0.512-1.144-1.144c0-0.632,0.512-1.163,1.144-1.163
			c0.632,0,1.144,0.532,1.144,1.163C23.517,16.795,23.005,17.308,22.372,17.308z M10.381,11.667c0,2.222,2.311,3.704,2.311,5.926
			c0,1.152-0.932,4.994-1.346,6.644C11.233,24.686,10.816,25,10.335,25H7.357c-0.481,0-0.898-0.314-1.011-0.764
			C5.932,22.587,5,18.745,5,17.593c0-2.222,2.311-3.704,2.311-5.926c0,0-0.021-0.62-0.062-0.985L6.591,7.684l0.001,0
			C6.559,7.534,6.541,7.38,6.541,7.222C6.541,5.995,7.575,5,8.852,5s2.311,0.995,2.311,2.222c0,0.193-0.034,0.377-0.082,0.556
			l-0.637,2.903C10.402,11.046,10.381,11.667,10.381,11.667z"/>
	</g>
</g>
</svg>
