<?xml version="1.0" encoding="iso-8859-1"?>
<!-- Generator: Adobe Illustrator 24.0.1, SVG Export Plug-In . SVG Version: 6.00 Build 0)  -->
<svg version="1.1" id="sport_x5F_fitness-layer" xmlns="http://www.w3.org/2000/svg" xmlns:xlink="http://www.w3.org/1999/xlink"
	 x="0px" y="0px" viewBox="0 0 30 30" style="enable-background:new 0 0 30 30;" xml:space="preserve">
<g id="sport_x5F_fitness_1_">
	<g>
		<g>
			<g>
				<path style="fill:#FFFFFF;" d="M2,29.5c-0.827,0-1.5-0.673-1.5-1.5V2c0-0.827,0.673-1.5,1.5-1.5h26c0.827,0,1.5,0.673,1.5,1.5
					v26c0,0.827-0.673,1.5-1.5,1.5H2z"/>
				<path style="fill:#9F9FB4;" d="M28,1c0.551,0,1,0.449,1,1v26c0,0.551-0.449,1-1,1H2c-0.551,0-1-0.449-1-1V2c0-0.551,0.449-1,1-1
					H28 M28,0H2C0.895,0,0,0.895,0,2v26c0,1.105,0.895,2,2,2h26c1.105,0,2-0.895,2-2V2C30,0.895,29.105,0,28,0L28,0z"/>
			</g>
		</g>
	</g>
	<rect x="3" y="3" style="fill:none;" width="24" height="24"/>
	<path style="fill:#494849;" d="M24.723,14.013l-1.414-1.414l1.768-1.768l-2.121-2.121l1.061-1.061l-1.414-1.414l-1.061,1.061
		l-2.121-2.121l-1.768,1.768l-1.414-1.414c-0.389-0.389-1.025-0.389-1.414,0l-1.768,1.768c-0.389,0.389-0.389,1.025,0,1.414
		l3.536,3.536l-4.596,4.596l-3.536-3.536c-0.391-0.391-1.024-0.391-1.414,0L5.631,14.72c-0.39,0.391-0.39,1.024,0,1.414l1.414,1.414
		l-1.768,1.768l2.121,2.121l-1.414,1.414l1.414,1.414l1.414-1.414l2.121,2.121l1.768-1.768l1.414,1.414
		c0.391,0.391,1.024,0.391,1.414,0l1.414-1.414c0.391-0.391,0.391-1.024,0-1.414l-3.536-3.536l4.596-4.596l3.536,3.536
		c0.391,0.391,1.024,0.391,1.414,0l1.768-1.768C25.112,15.038,25.112,14.402,24.723,14.013z"/>
</g>
</svg>
