<?xml version="1.0" encoding="iso-8859-1"?>
<!-- Generator: Adobe Illustrator 24.0.1, SVG Export Plug-In . SVG Version: 6.00 Build 0)  -->
<svg version="1.1" id="sport_x5F_ski_x5F_run-layer"
	 xmlns="http://www.w3.org/2000/svg" xmlns:xlink="http://www.w3.org/1999/xlink" x="0px" y="0px" viewBox="0 0 30 30"
	 style="enable-background:new 0 0 30 30;" xml:space="preserve">
<g id="sport_x5F_ski_x5F_run_1_">
	<g>
		<g>
			<g>
				<path style="fill:#FFFFFF;" d="M2,29.5c-0.827,0-1.5-0.673-1.5-1.5V2c0-0.827,0.673-1.5,1.5-1.5h26c0.827,0,1.5,0.673,1.5,1.5
					v26c0,0.827-0.673,1.5-1.5,1.5H2z"/>
				<path style="fill:#9F9FB4;" d="M28,1c0.551,0,1,0.449,1,1v26c0,0.551-0.449,1-1,1H2c-0.551,0-1-0.449-1-1V2c0-0.551,0.449-1,1-1
					H28 M28,0H2C0.895,0,0,0.895,0,2v26c0,1.105,0.895,2,2,2h26c1.105,0,2-0.895,2-2V2C30,0.895,29.105,0,28,0L28,0z"/>
			</g>
		</g>
	</g>
	<path style="opacity:0.05;fill:none;" d="M3,3h24v24H3V3z"/>
	<path style="fill:#494849;" d="M23.369,9.086l0.993-1.736c0.274-0.479,0.108-1.09-0.372-1.364l-0.868-0.496
		c-0.479-0.274-1.09-0.108-1.364,0.372l-1.489,2.605l0.868,0.496l0.868,0.496C22.484,9.732,23.095,9.565,23.369,9.086z
		 M22.375,22.916c-0.857,0.487-1.232,0.457-1.799,0.124l-6.077-3.474l3.473-2.046l-0.93-3.411l-4.341-2.481l2.232,4.155
		l-2.605,2.542L6.685,15.1l-1.178,1.054l14.31,8.172c0.921,0.524,2.067,0.392,2.846-0.345L22.375,22.916z M23.492,14.916
		l-2.605-1.489L20.8,10.505l-3.37-1.926c-0.329-0.188-0.736-0.174-1.051,0.036L14.81,9.953L9.601,6.976L8.857,8.278l13.891,7.94
		L23.492,14.916z"/>
</g>
</svg>
