<?xml version="1.0" encoding="iso-8859-1"?>
<!-- Generator: Adobe Illustrator 24.0.1, SVG Export Plug-In . SVG Version: 6.00 Build 0)  -->
<svg version="1.1" id="toll_x5F_booth-layer" xmlns="http://www.w3.org/2000/svg" xmlns:xlink="http://www.w3.org/1999/xlink"
	 x="0px" y="0px" viewBox="0 0 30 30" style="enable-background:new 0 0 30 30;" xml:space="preserve">
<g id="toll_x5F_booth_2_">
	<g>
		<g>
			<path style="fill:#FFFFFF;" d="M2,29.5c-0.827,0-1.5-0.673-1.5-1.5V2c0-0.827,0.673-1.5,1.5-1.5h26c0.827,0,1.5,0.673,1.5,1.5v26
				c0,0.827-0.673,1.5-1.5,1.5H2z"/>
			<path style="fill:#9F9FB4;" d="M28,1c0.551,0,1,0.449,1,1v26c0,0.551-0.449,1-1,1H2c-0.551,0-1-0.449-1-1V2c0-0.551,0.449-1,1-1
				H28 M28,0H2C0.895,0,0,0.895,0,2v26c0,1.105,0.895,2,2,2h26c1.105,0,2-0.895,2-2V2C30,0.895,29.105,0,28,0L28,0z"/>
		</g>
	</g>
	<g>
		<rect x="3" y="3" style="fill:none;" width="24" height="24"/>
	</g>
	<path style="fill:#494849;" d="M14.5,21c3.314,0,6-2.686,6-6c0-3.313-2.686-6-6-6c-3.315,0-6,2.688-6,6
		C8.5,18.314,11.185,21,14.5,21z M14,11h2v8h-2v-5.5h-2L14,11z M25,21v1c0,1.654-1.346,3-3,3H8c-1.654,0-3-1.346-3-3v-1
		c0-1.534,1.161-2.788,2.648-2.964C7.969,18.759,8.404,19.418,8.926,20H7v3h16v-3h-2.926c0.531-0.591,0.972-1.263,1.295-2H22
		C23.654,18,25,19.346,25,21z M14.5,7.5c-0.197,0-0.391,0.015-0.584,0.03C14.819,6.24,16.305,5.389,18,5.389c2.761,0,5,2.24,5,5
		c0,1.198-0.444,2.279-1.147,3.138C21.167,10.095,18.131,7.5,14.5,7.5z"/>
</g>
</svg>
