<?xml version="1.0" encoding="iso-8859-1"?>
<!-- Generator: Adobe Illustrator 24.0.1, SVG Export Plug-In . SVG Version: 6.00 Build 0)  -->
<svg version="1.1" id="transport_x5F_bus-layer" xmlns="http://www.w3.org/2000/svg" xmlns:xlink="http://www.w3.org/1999/xlink"
	 x="0px" y="0px" viewBox="0 0 30 30" style="enable-background:new 0 0 30 30;" xml:space="preserve">
<g id="transport_x5F_bus_3_">
	<g>
		<path style="fill:#FFFFFF;" d="M2,29.5c-0.827,0-1.5-0.673-1.5-1.5V2c0-0.827,0.673-1.5,1.5-1.5h26c0.827,0,1.5,0.673,1.5,1.5v26
			c0,0.827-0.673,1.5-1.5,1.5H2z"/>
		<path style="fill:#9F9FB4;" d="M28,1c0.551,0,1,0.449,1,1v26c0,0.551-0.449,1-1,1H2c-0.551,0-1-0.449-1-1V2c0-0.551,0.449-1,1-1
			H28 M28,0H2C0.895,0,0,0.895,0,2v26c0,1.105,0.895,2,2,2h26c1.105,0,2-0.895,2-2V2C30,0.895,29.105,0,28,0L28,0z"/>
	</g>
	<rect id="_x3C_Path_x3E__26_" x="3" y="3" style="fill:none;" width="24" height="24"/>
	<path style="fill:#494849;" d="M23,9V6.5C23,5.672,22.328,5,21.5,5h-13C7.672,5,7,5.672,7,6.5V9H6v4h1v9v1v1c0,0.552,0.448,1,1,1
		h1.996C10.551,25,11,24.551,11,23.996V23h8v1c0,0.552,0.448,1,1,1h2c0.552,0,1-0.448,1-1v-1v-1v-9h1V9H23z M9,7h12v2H9V7z M9,11h12
		v6H9V11z M12,21H9.5c-0.667-0.667-0.667-1.333,0-2H12V21z M18,19h2.5c0.667,0.667,0.667,1.333,0,2H18V19z"/>
</g>
</svg>
