<?xml version="1.0" encoding="iso-8859-1"?>
<!-- Generator: Adobe Illustrator 24.0.1, SVG Export Plug-In . SVG Version: 6.00 Build 0)  -->
<svg version="1.1" id="venue_x5F_icon-layer" xmlns="http://www.w3.org/2000/svg" xmlns:xlink="http://www.w3.org/1999/xlink"
	 x="0px" y="0px" viewBox="0 0 30 30" style="enable-background:new 0 0 30 30;" xml:space="preserve">
<g id="venue_x5F_icon_2_">
	<g>
		<path style="fill:#FFFFFF;" d="M1.984,29.5c-0.818,0-1.484-0.665-1.484-1.483V1.984C0.5,1.166,1.166,0.5,1.984,0.5h26.033
			c0.818,0,1.483,0.666,1.483,1.484v26.033c0,0.818-0.665,1.483-1.483,1.483H1.984z"/>
		<path style="fill:#9F9FB4;" d="M28.016,1C28.559,1,29,1.441,29,1.984v26.032C29,28.559,28.559,29,28.016,29H1.984
			C1.441,29,1,28.559,1,28.016V1.984C1,1.441,1.441,1,1.984,1H28.016 M28.016,0H1.984C0.888,0,0,0.888,0,1.984v26.032
			C0,29.112,0.888,30,1.984,30h26.032C29.112,30,30,29.112,30,28.016V1.984C30,0.888,29.112,0,28.016,0L28.016,0z"/>
	</g>
	<rect x="3" y="3" style="fill:none;" width="24" height="24"/>
	<path style="fill:#494849;" d="M8,9l7,4.5v2L8,20l1-4H5v-3h4L8,9z M25,9.386v11.228c0,0.834-0.517,1.58-1.298,1.873l-5.351,2.007
		C17.697,24.739,17,24.255,17,23.557V6.443c0-0.698,0.697-1.181,1.351-0.936l5.351,2.007C24.483,7.806,25,8.552,25,9.386z
		 M21.004,13.008c0-0.004-0.003-0.008-0.006-0.008H19c-0.003,0,0,3,0,3c0,0.004,1.998,0,1.998,0c0.003,0,0.006-0.003,0.006-0.008
		V13.008z"/>
</g>
</svg>
